ISO-10303-21;
HEADER;
/* Generated by software containing ST-Developer
 * from STEP Tools, Inc. (www.steptools.com) 
 */

FILE_DESCRIPTION(
/* description */ (''),
/* implementation_level */ '2;1');

FILE_NAME(
/* name */ 'Neck Motor Holder2.step',
/* time_stamp */ '2026-06-03T21:09:11+09:00',
/* author */ (''),
/* organization */ (''),
/* preprocessor_version */ 'ST-DEVELOPER v20.1',
/* originating_system */ 'Autodesk Translation Framework v15.8.0.0',
/* authorisation */ '');

FILE_SCHEMA (('AUTOMOTIVE_DESIGN { 1 0 10303 214 3 1 1 }'));
ENDSEC;

DATA;
#10=MECHANICAL_DESIGN_GEOMETRIC_PRESENTATION_REPRESENTATION('',(#17),#855);
#11=ITEM_DEFINED_TRANSFORMATION($,$,#527,#569);
#12=(
REPRESENTATION_RELATIONSHIP($,$,#866,#865)
REPRESENTATION_RELATIONSHIP_WITH_TRANSFORMATION(#11)
SHAPE_REPRESENTATION_RELATIONSHIP()
);
#13=CONTEXT_DEPENDENT_SHAPE_REPRESENTATION(#12,#864);
#14=NEXT_ASSEMBLY_USAGE_OCCURRENCE('Arm1:1','Arm1:1','Arm1:1',#868,#869,
'Arm1:1');
#15=SHAPE_REPRESENTATION_RELATIONSHIP('SRR','None',#866,#16);
#16=ADVANCED_BREP_SHAPE_REPRESENTATION('',(#18),#854);
#17=STYLED_ITEM('',(#879),#18);
#18=MANIFOLD_SOLID_BREP('Body2',#513);
#19=CYLINDRICAL_SURFACE('',#538,3.6);
#20=CYLINDRICAL_SURFACE('',#542,3.6);
#21=CYLINDRICAL_SURFACE('',#545,1.7);
#22=CYLINDRICAL_SURFACE('',#561,1.5);
#23=FACE_BOUND('',#190,.T.);
#24=FACE_BOUND('',#194,.T.);
#25=FACE_BOUND('',#198,.T.);
#26=FACE_BOUND('',#208,.T.);
#27=FACE_BOUND('',#210,.T.);
#28=FACE_BOUND('',#212,.T.);
#29=FACE_BOUND('',#214,.T.);
#30=FACE_BOUND('',#216,.T.);
#31=FACE_BOUND('',#219,.T.);
#32=FACE_BOUND('',#221,.T.);
#33=FACE_BOUND('',#223,.T.);
#34=FACE_BOUND('',#225,.T.);
#35=FACE_BOUND('',#227,.T.);
#36=LINE('',#721,#88);
#37=LINE('',#723,#89);
#38=LINE('',#725,#90);
#39=LINE('',#726,#91);
#40=LINE('',#738,#92);
#41=LINE('',#746,#93);
#42=LINE('',#751,#94);
#43=LINE('',#756,#95);
#44=LINE('',#758,#96);
#45=LINE('',#760,#97);
#46=LINE('',#761,#98);
#47=LINE('',#765,#99);
#48=LINE('',#767,#100);
#49=LINE('',#769,#101);
#50=LINE('',#770,#102);
#51=LINE('',#773,#103);
#52=LINE('',#775,#104);
#53=LINE('',#776,#105);
#54=LINE('',#779,#106);
#55=LINE('',#781,#107);
#56=LINE('',#782,#108);
#57=LINE('',#785,#109);
#58=LINE('',#787,#110);
#59=LINE('',#788,#111);
#60=LINE('',#790,#112);
#61=LINE('',#791,#113);
#62=LINE('',#794,#114);
#63=LINE('',#796,#115);
#64=LINE('',#797,#116);
#65=LINE('',#799,#117);
#66=LINE('',#800,#118);
#67=LINE('',#804,#119);
#68=LINE('',#806,#120);
#69=LINE('',#808,#121);
#70=LINE('',#809,#122);
#71=LINE('',#812,#123);
#72=LINE('',#814,#124);
#73=LINE('',#815,#125);
#74=LINE('',#818,#126);
#75=LINE('',#820,#127);
#76=LINE('',#821,#128);
#77=LINE('',#823,#129);
#78=LINE('',#824,#130);
#79=LINE('',#828,#131);
#80=LINE('',#829,#132);
#81=LINE('',#830,#133);
#82=LINE('',#835,#134);
#83=LINE('',#839,#135);
#84=LINE('',#840,#136);
#85=LINE('',#843,#137);
#86=LINE('',#844,#138);
#87=LINE('',#846,#139);
#88=VECTOR('',#584,10.);
#89=VECTOR('',#585,10.);
#90=VECTOR('',#586,10.);
#91=VECTOR('',#587,10.);
#92=VECTOR('',#602,3.6);
#93=VECTOR('',#611,3.6);
#94=VECTOR('',#618,1.7);
#95=VECTOR('',#623,10.);
#96=VECTOR('',#624,10.);
#97=VECTOR('',#625,10.);
#98=VECTOR('',#626,10.);
#99=VECTOR('',#629,10.);
#100=VECTOR('',#630,10.);
#101=VECTOR('',#631,10.);
#102=VECTOR('',#632,10.);
#103=VECTOR('',#635,10.);
#104=VECTOR('',#636,10.);
#105=VECTOR('',#637,10.);
#106=VECTOR('',#640,10.);
#107=VECTOR('',#641,10.);
#108=VECTOR('',#642,10.);
#109=VECTOR('',#645,10.);
#110=VECTOR('',#646,10.);
#111=VECTOR('',#647,10.);
#112=VECTOR('',#650,10.);
#113=VECTOR('',#651,10.);
#114=VECTOR('',#654,10.);
#115=VECTOR('',#655,10.);
#116=VECTOR('',#656,10.);
#117=VECTOR('',#659,10.);
#118=VECTOR('',#660,10.);
#119=VECTOR('',#663,10.);
#120=VECTOR('',#664,10.);
#121=VECTOR('',#665,10.);
#122=VECTOR('',#666,10.);
#123=VECTOR('',#669,10.);
#124=VECTOR('',#670,10.);
#125=VECTOR('',#671,10.);
#126=VECTOR('',#674,10.);
#127=VECTOR('',#675,10.);
#128=VECTOR('',#676,10.);
#129=VECTOR('',#679,10.);
#130=VECTOR('',#680,10.);
#131=VECTOR('',#683,10.);
#132=VECTOR('',#684,10.);
#133=VECTOR('',#685,10.);
#134=VECTOR('',#690,1.5);
#135=VECTOR('',#695,10.);
#136=VECTOR('',#696,10.);
#137=VECTOR('',#699,10.);
#138=VECTOR('',#700,10.);
#139=VECTOR('',#703,10.);
#140=PLANE('',#532);
#141=PLANE('',#540);
#142=PLANE('',#547);
#143=PLANE('',#548);
#144=PLANE('',#549);
#145=PLANE('',#550);
#146=PLANE('',#551);
#147=PLANE('',#552);
#148=PLANE('',#553);
#149=PLANE('',#554);
#150=PLANE('',#555);
#151=PLANE('',#556);
#152=PLANE('',#557);
#153=PLANE('',#558);
#154=PLANE('',#559);
#155=PLANE('',#560);
#156=PLANE('',#564);
#157=PLANE('',#565);
#158=PLANE('',#566);
#159=PLANE('',#567);
#160=PLANE('',#568);
#161=FACE_OUTER_BOUND('',#188,.T.);
#162=FACE_OUTER_BOUND('',#189,.T.);
#163=FACE_OUTER_BOUND('',#191,.T.);
#164=FACE_OUTER_BOUND('',#192,.T.);
#165=FACE_OUTER_BOUND('',#193,.T.);
#166=FACE_OUTER_BOUND('',#195,.T.);
#167=FACE_OUTER_BOUND('',#196,.T.);
#168=FACE_OUTER_BOUND('',#197,.T.);
#169=FACE_OUTER_BOUND('',#199,.T.);
#170=FACE_OUTER_BOUND('',#200,.T.);
#171=FACE_OUTER_BOUND('',#201,.T.);
#172=FACE_OUTER_BOUND('',#202,.T.);
#173=FACE_OUTER_BOUND('',#203,.T.);
#174=FACE_OUTER_BOUND('',#204,.T.);
#175=FACE_OUTER_BOUND('',#205,.T.);
#176=FACE_OUTER_BOUND('',#206,.T.);
#177=FACE_OUTER_BOUND('',#207,.T.);
#178=FACE_OUTER_BOUND('',#209,.T.);
#179=FACE_OUTER_BOUND('',#211,.T.);
#180=FACE_OUTER_BOUND('',#213,.T.);
#181=FACE_OUTER_BOUND('',#215,.T.);
#182=FACE_OUTER_BOUND('',#217,.T.);
#183=FACE_OUTER_BOUND('',#218,.T.);
#184=FACE_OUTER_BOUND('',#220,.T.);
#185=FACE_OUTER_BOUND('',#222,.T.);
#186=FACE_OUTER_BOUND('',#224,.T.);
#187=FACE_OUTER_BOUND('',#226,.T.);
#188=EDGE_LOOP('',(#352,#353,#354,#355));
#189=EDGE_LOOP('',(#356,#357,#358,#359));
#190=EDGE_LOOP('',(#360));
#191=EDGE_LOOP('',(#361,#362,#363,#364,#365));
#192=EDGE_LOOP('',(#366,#367,#368,#369,#370));
#193=EDGE_LOOP('',(#371));
#194=EDGE_LOOP('',(#372));
#195=EDGE_LOOP('',(#373,#374,#375,#376));
#196=EDGE_LOOP('',(#377,#378,#379,#380));
#197=EDGE_LOOP('',(#381));
#198=EDGE_LOOP('',(#382));
#199=EDGE_LOOP('',(#383,#384,#385,#386));
#200=EDGE_LOOP('',(#387,#388,#389,#390));
#201=EDGE_LOOP('',(#391,#392,#393,#394));
#202=EDGE_LOOP('',(#395,#396,#397,#398));
#203=EDGE_LOOP('',(#399,#400,#401,#402));
#204=EDGE_LOOP('',(#403,#404,#405,#406));
#205=EDGE_LOOP('',(#407,#408,#409,#410));
#206=EDGE_LOOP('',(#411,#412,#413,#414));
#207=EDGE_LOOP('',(#415,#416,#417,#418));
#208=EDGE_LOOP('',(#419));
#209=EDGE_LOOP('',(#420,#421,#422,#423));
#210=EDGE_LOOP('',(#424,#425,#426,#427));
#211=EDGE_LOOP('',(#428,#429,#430,#431));
#212=EDGE_LOOP('',(#432));
#213=EDGE_LOOP('',(#433,#434,#435,#436));
#214=EDGE_LOOP('',(#437,#438,#439,#440));
#215=EDGE_LOOP('',(#441,#442,#443,#444));
#216=EDGE_LOOP('',(#445,#446,#447,#448));
#217=EDGE_LOOP('',(#449,#450,#451,#452));
#218=EDGE_LOOP('',(#453,#454,#455,#456));
#219=EDGE_LOOP('',(#457,#458,#459,#460));
#220=EDGE_LOOP('',(#461,#462,#463,#464));
#221=EDGE_LOOP('',(#465,#466,#467,#468));
#222=EDGE_LOOP('',(#469,#470,#471,#472));
#223=EDGE_LOOP('',(#473));
#224=EDGE_LOOP('',(#474,#475,#476,#477));
#225=EDGE_LOOP('',(#478));
#226=EDGE_LOOP('',(#479,#480,#481,#482));
#227=EDGE_LOOP('',(#483));
#228=CIRCLE('',#529,5.58997487421323);
#229=CIRCLE('',#530,2.);
#230=CIRCLE('',#531,3.6);
#231=CIRCLE('',#534,3.2);
#232=CIRCLE('',#535,0.4);
#233=CIRCLE('',#536,3.6);
#234=CIRCLE('',#537,3.6);
#235=CIRCLE('',#539,3.6);
#236=CIRCLE('',#541,1.7);
#237=CIRCLE('',#543,3.6);
#238=CIRCLE('',#544,3.6);
#239=CIRCLE('',#546,1.7);
#240=CIRCLE('',#562,1.5);
#241=CIRCLE('',#563,1.5);
#242=VERTEX_POINT('',#713);
#243=VERTEX_POINT('',#715);
#244=VERTEX_POINT('',#719);
#245=VERTEX_POINT('',#720);
#246=VERTEX_POINT('',#722);
#247=VERTEX_POINT('',#724);
#248=VERTEX_POINT('',#728);
#249=VERTEX_POINT('',#730);
#250=VERTEX_POINT('',#732);
#251=VERTEX_POINT('',#736);
#252=VERTEX_POINT('',#740);
#253=VERTEX_POINT('',#743);
#254=VERTEX_POINT('',#745);
#255=VERTEX_POINT('',#749);
#256=VERTEX_POINT('',#754);
#257=VERTEX_POINT('',#755);
#258=VERTEX_POINT('',#757);
#259=VERTEX_POINT('',#759);
#260=VERTEX_POINT('',#763);
#261=VERTEX_POINT('',#764);
#262=VERTEX_POINT('',#766);
#263=VERTEX_POINT('',#768);
#264=VERTEX_POINT('',#772);
#265=VERTEX_POINT('',#774);
#266=VERTEX_POINT('',#778);
#267=VERTEX_POINT('',#780);
#268=VERTEX_POINT('',#784);
#269=VERTEX_POINT('',#786);
#270=VERTEX_POINT('',#793);
#271=VERTEX_POINT('',#795);
#272=VERTEX_POINT('',#802);
#273=VERTEX_POINT('',#803);
#274=VERTEX_POINT('',#805);
#275=VERTEX_POINT('',#807);
#276=VERTEX_POINT('',#811);
#277=VERTEX_POINT('',#813);
#278=VERTEX_POINT('',#817);
#279=VERTEX_POINT('',#819);
#280=VERTEX_POINT('',#826);
#281=VERTEX_POINT('',#827);
#282=VERTEX_POINT('',#832);
#283=VERTEX_POINT('',#834);
#284=VERTEX_POINT('',#838);
#285=VERTEX_POINT('',#842);
#286=EDGE_CURVE('',#242,#242,#228,.T.);
#287=EDGE_CURVE('',#242,#243,#229,.T.);
#288=EDGE_CURVE('',#243,#243,#230,.T.);
#289=EDGE_CURVE('',#244,#245,#36,.F.);
#290=EDGE_CURVE('',#246,#244,#37,.T.);
#291=EDGE_CURVE('',#246,#247,#38,.T.);
#292=EDGE_CURVE('',#245,#247,#39,.F.);
#293=EDGE_CURVE('',#248,#248,#231,.T.);
#294=EDGE_CURVE('',#248,#249,#232,.T.);
#295=EDGE_CURVE('',#249,#250,#233,.T.);
#296=EDGE_CURVE('',#250,#249,#234,.T.);
#297=EDGE_CURVE('',#251,#251,#235,.T.);
#298=EDGE_CURVE('',#251,#250,#40,.T.);
#299=EDGE_CURVE('',#252,#252,#236,.T.);
#300=EDGE_CURVE('',#253,#253,#237,.T.);
#301=EDGE_CURVE('',#253,#254,#41,.T.);
#302=EDGE_CURVE('',#254,#254,#238,.T.);
#303=EDGE_CURVE('',#255,#255,#239,.T.);
#304=EDGE_CURVE('',#255,#252,#42,.T.);
#305=EDGE_CURVE('',#256,#257,#43,.T.);
#306=EDGE_CURVE('',#258,#256,#44,.T.);
#307=EDGE_CURVE('',#259,#258,#45,.T.);
#308=EDGE_CURVE('',#259,#257,#46,.T.);
#309=EDGE_CURVE('',#260,#261,#47,.T.);
#310=EDGE_CURVE('',#260,#262,#48,.T.);
#311=EDGE_CURVE('',#263,#262,#49,.T.);
#312=EDGE_CURVE('',#261,#263,#50,.T.);
#313=EDGE_CURVE('',#257,#264,#51,.T.);
#314=EDGE_CURVE('',#265,#259,#52,.T.);
#315=EDGE_CURVE('',#265,#264,#53,.T.);
#316=EDGE_CURVE('',#266,#256,#54,.T.);
#317=EDGE_CURVE('',#267,#266,#55,.T.);
#318=EDGE_CURVE('',#258,#267,#56,.T.);
#319=EDGE_CURVE('',#261,#268,#57,.T.);
#320=EDGE_CURVE('',#269,#263,#58,.T.);
#321=EDGE_CURVE('',#268,#269,#59,.T.);
#322=EDGE_CURVE('',#264,#266,#60,.T.);
#323=EDGE_CURVE('',#267,#265,#61,.T.);
#324=EDGE_CURVE('',#268,#270,#62,.T.);
#325=EDGE_CURVE('',#271,#269,#63,.T.);
#326=EDGE_CURVE('',#270,#271,#64,.T.);
#327=EDGE_CURVE('',#270,#260,#65,.T.);
#328=EDGE_CURVE('',#262,#271,#66,.T.);
#329=EDGE_CURVE('',#272,#273,#67,.T.);
#330=EDGE_CURVE('',#272,#274,#68,.T.);
#331=EDGE_CURVE('',#275,#274,#69,.T.);
#332=EDGE_CURVE('',#273,#275,#70,.T.);
#333=EDGE_CURVE('',#273,#276,#71,.T.);
#334=EDGE_CURVE('',#277,#275,#72,.T.);
#335=EDGE_CURVE('',#276,#277,#73,.T.);
#336=EDGE_CURVE('',#276,#278,#74,.T.);
#337=EDGE_CURVE('',#279,#277,#75,.T.);
#338=EDGE_CURVE('',#278,#279,#76,.T.);
#339=EDGE_CURVE('',#278,#272,#77,.T.);
#340=EDGE_CURVE('',#274,#279,#78,.T.);
#341=EDGE_CURVE('',#280,#281,#79,.T.);
#342=EDGE_CURVE('',#281,#245,#80,.T.);
#343=EDGE_CURVE('',#247,#280,#81,.T.);
#344=EDGE_CURVE('',#282,#282,#240,.T.);
#345=EDGE_CURVE('',#282,#283,#82,.T.);
#346=EDGE_CURVE('',#283,#283,#241,.T.);
#347=EDGE_CURVE('',#284,#281,#83,.T.);
#348=EDGE_CURVE('',#244,#284,#84,.T.);
#349=EDGE_CURVE('',#285,#246,#85,.T.);
#350=EDGE_CURVE('',#280,#285,#86,.T.);
#351=EDGE_CURVE('',#284,#285,#87,.T.);
#352=ORIENTED_EDGE('',*,*,#286,.T.);
#353=ORIENTED_EDGE('',*,*,#287,.T.);
#354=ORIENTED_EDGE('',*,*,#288,.F.);
#355=ORIENTED_EDGE('',*,*,#287,.F.);
#356=ORIENTED_EDGE('',*,*,#289,.F.);
#357=ORIENTED_EDGE('',*,*,#290,.F.);
#358=ORIENTED_EDGE('',*,*,#291,.T.);
#359=ORIENTED_EDGE('',*,*,#292,.F.);
#360=ORIENTED_EDGE('',*,*,#286,.F.);
#361=ORIENTED_EDGE('',*,*,#293,.T.);
#362=ORIENTED_EDGE('',*,*,#294,.T.);
#363=ORIENTED_EDGE('',*,*,#295,.T.);
#364=ORIENTED_EDGE('',*,*,#296,.T.);
#365=ORIENTED_EDGE('',*,*,#294,.F.);
#366=ORIENTED_EDGE('',*,*,#297,.F.);
#367=ORIENTED_EDGE('',*,*,#298,.T.);
#368=ORIENTED_EDGE('',*,*,#295,.F.);
#369=ORIENTED_EDGE('',*,*,#296,.F.);
#370=ORIENTED_EDGE('',*,*,#298,.F.);
#371=ORIENTED_EDGE('',*,*,#293,.F.);
#372=ORIENTED_EDGE('',*,*,#299,.F.);
#373=ORIENTED_EDGE('',*,*,#300,.F.);
#374=ORIENTED_EDGE('',*,*,#301,.T.);
#375=ORIENTED_EDGE('',*,*,#302,.F.);
#376=ORIENTED_EDGE('',*,*,#301,.F.);
#377=ORIENTED_EDGE('',*,*,#303,.F.);
#378=ORIENTED_EDGE('',*,*,#304,.T.);
#379=ORIENTED_EDGE('',*,*,#299,.T.);
#380=ORIENTED_EDGE('',*,*,#304,.F.);
#381=ORIENTED_EDGE('',*,*,#288,.T.);
#382=ORIENTED_EDGE('',*,*,#303,.T.);
#383=ORIENTED_EDGE('',*,*,#305,.F.);
#384=ORIENTED_EDGE('',*,*,#306,.F.);
#385=ORIENTED_EDGE('',*,*,#307,.F.);
#386=ORIENTED_EDGE('',*,*,#308,.T.);
#387=ORIENTED_EDGE('',*,*,#309,.F.);
#388=ORIENTED_EDGE('',*,*,#310,.T.);
#389=ORIENTED_EDGE('',*,*,#311,.F.);
#390=ORIENTED_EDGE('',*,*,#312,.F.);
#391=ORIENTED_EDGE('',*,*,#313,.F.);
#392=ORIENTED_EDGE('',*,*,#308,.F.);
#393=ORIENTED_EDGE('',*,*,#314,.F.);
#394=ORIENTED_EDGE('',*,*,#315,.T.);
#395=ORIENTED_EDGE('',*,*,#316,.F.);
#396=ORIENTED_EDGE('',*,*,#317,.F.);
#397=ORIENTED_EDGE('',*,*,#318,.F.);
#398=ORIENTED_EDGE('',*,*,#306,.T.);
#399=ORIENTED_EDGE('',*,*,#319,.F.);
#400=ORIENTED_EDGE('',*,*,#312,.T.);
#401=ORIENTED_EDGE('',*,*,#320,.F.);
#402=ORIENTED_EDGE('',*,*,#321,.F.);
#403=ORIENTED_EDGE('',*,*,#322,.F.);
#404=ORIENTED_EDGE('',*,*,#315,.F.);
#405=ORIENTED_EDGE('',*,*,#323,.F.);
#406=ORIENTED_EDGE('',*,*,#317,.T.);
#407=ORIENTED_EDGE('',*,*,#324,.F.);
#408=ORIENTED_EDGE('',*,*,#321,.T.);
#409=ORIENTED_EDGE('',*,*,#325,.F.);
#410=ORIENTED_EDGE('',*,*,#326,.F.);
#411=ORIENTED_EDGE('',*,*,#327,.F.);
#412=ORIENTED_EDGE('',*,*,#326,.T.);
#413=ORIENTED_EDGE('',*,*,#328,.F.);
#414=ORIENTED_EDGE('',*,*,#310,.F.);
#415=ORIENTED_EDGE('',*,*,#329,.F.);
#416=ORIENTED_EDGE('',*,*,#330,.T.);
#417=ORIENTED_EDGE('',*,*,#331,.F.);
#418=ORIENTED_EDGE('',*,*,#332,.F.);
#419=ORIENTED_EDGE('',*,*,#297,.T.);
#420=ORIENTED_EDGE('',*,*,#333,.F.);
#421=ORIENTED_EDGE('',*,*,#332,.T.);
#422=ORIENTED_EDGE('',*,*,#334,.F.);
#423=ORIENTED_EDGE('',*,*,#335,.F.);
#424=ORIENTED_EDGE('',*,*,#324,.T.);
#425=ORIENTED_EDGE('',*,*,#327,.T.);
#426=ORIENTED_EDGE('',*,*,#309,.T.);
#427=ORIENTED_EDGE('',*,*,#319,.T.);
#428=ORIENTED_EDGE('',*,*,#336,.F.);
#429=ORIENTED_EDGE('',*,*,#335,.T.);
#430=ORIENTED_EDGE('',*,*,#337,.F.);
#431=ORIENTED_EDGE('',*,*,#338,.F.);
#432=ORIENTED_EDGE('',*,*,#302,.T.);
#433=ORIENTED_EDGE('',*,*,#339,.F.);
#434=ORIENTED_EDGE('',*,*,#338,.T.);
#435=ORIENTED_EDGE('',*,*,#340,.F.);
#436=ORIENTED_EDGE('',*,*,#330,.F.);
#437=ORIENTED_EDGE('',*,*,#322,.T.);
#438=ORIENTED_EDGE('',*,*,#316,.T.);
#439=ORIENTED_EDGE('',*,*,#305,.T.);
#440=ORIENTED_EDGE('',*,*,#313,.T.);
#441=ORIENTED_EDGE('',*,*,#341,.T.);
#442=ORIENTED_EDGE('',*,*,#342,.T.);
#443=ORIENTED_EDGE('',*,*,#292,.T.);
#444=ORIENTED_EDGE('',*,*,#343,.T.);
#445=ORIENTED_EDGE('',*,*,#340,.T.);
#446=ORIENTED_EDGE('',*,*,#337,.T.);
#447=ORIENTED_EDGE('',*,*,#334,.T.);
#448=ORIENTED_EDGE('',*,*,#331,.T.);
#449=ORIENTED_EDGE('',*,*,#344,.F.);
#450=ORIENTED_EDGE('',*,*,#345,.T.);
#451=ORIENTED_EDGE('',*,*,#346,.F.);
#452=ORIENTED_EDGE('',*,*,#345,.F.);
#453=ORIENTED_EDGE('',*,*,#347,.F.);
#454=ORIENTED_EDGE('',*,*,#348,.F.);
#455=ORIENTED_EDGE('',*,*,#289,.T.);
#456=ORIENTED_EDGE('',*,*,#342,.F.);
#457=ORIENTED_EDGE('',*,*,#323,.T.);
#458=ORIENTED_EDGE('',*,*,#314,.T.);
#459=ORIENTED_EDGE('',*,*,#307,.T.);
#460=ORIENTED_EDGE('',*,*,#318,.T.);
#461=ORIENTED_EDGE('',*,*,#291,.F.);
#462=ORIENTED_EDGE('',*,*,#349,.F.);
#463=ORIENTED_EDGE('',*,*,#350,.F.);
#464=ORIENTED_EDGE('',*,*,#343,.F.);
#465=ORIENTED_EDGE('',*,*,#325,.T.);
#466=ORIENTED_EDGE('',*,*,#320,.T.);
#467=ORIENTED_EDGE('',*,*,#311,.T.);
#468=ORIENTED_EDGE('',*,*,#328,.T.);
#469=ORIENTED_EDGE('',*,*,#350,.T.);
#470=ORIENTED_EDGE('',*,*,#351,.F.);
#471=ORIENTED_EDGE('',*,*,#347,.T.);
#472=ORIENTED_EDGE('',*,*,#341,.F.);
#473=ORIENTED_EDGE('',*,*,#300,.T.);
#474=ORIENTED_EDGE('',*,*,#329,.T.);
#475=ORIENTED_EDGE('',*,*,#333,.T.);
#476=ORIENTED_EDGE('',*,*,#336,.T.);
#477=ORIENTED_EDGE('',*,*,#339,.T.);
#478=ORIENTED_EDGE('',*,*,#346,.T.);
#479=ORIENTED_EDGE('',*,*,#351,.T.);
#480=ORIENTED_EDGE('',*,*,#349,.T.);
#481=ORIENTED_EDGE('',*,*,#290,.T.);
#482=ORIENTED_EDGE('',*,*,#348,.T.);
#483=ORIENTED_EDGE('',*,*,#344,.T.);
#484=TOROIDAL_SURFACE('',#528,5.58997487421324,2.);
#485=TOROIDAL_SURFACE('',#533,3.2,0.4);
#486=ADVANCED_FACE('',(#161),#484,.F.);
#487=ADVANCED_FACE('',(#162,#23),#140,.T.);
#488=ADVANCED_FACE('',(#163),#485,.F.);
#489=ADVANCED_FACE('',(#164),#19,.F.);
#490=ADVANCED_FACE('',(#165,#24),#141,.T.);
#491=ADVANCED_FACE('',(#166),#20,.F.);
#492=ADVANCED_FACE('',(#167),#21,.F.);
#493=ADVANCED_FACE('',(#168,#25),#142,.F.);
#494=ADVANCED_FACE('',(#169),#143,.F.);
#495=ADVANCED_FACE('',(#170),#144,.F.);
#496=ADVANCED_FACE('',(#171),#145,.F.);
#497=ADVANCED_FACE('',(#172),#146,.F.);
#498=ADVANCED_FACE('',(#173),#147,.F.);
#499=ADVANCED_FACE('',(#174),#148,.F.);
#500=ADVANCED_FACE('',(#175),#149,.F.);
#501=ADVANCED_FACE('',(#176),#150,.F.);
#502=ADVANCED_FACE('',(#177,#26),#151,.T.);
#503=ADVANCED_FACE('',(#178,#27),#152,.T.);
#504=ADVANCED_FACE('',(#179,#28),#153,.T.);
#505=ADVANCED_FACE('',(#180,#29),#154,.T.);
#506=ADVANCED_FACE('',(#181,#30),#155,.T.);
#507=ADVANCED_FACE('',(#182),#22,.F.);
#508=ADVANCED_FACE('',(#183,#31),#156,.T.);
#509=ADVANCED_FACE('',(#184,#32),#157,.T.);
#510=ADVANCED_FACE('',(#185,#33),#158,.T.);
#511=ADVANCED_FACE('',(#186,#34),#159,.T.);
#512=ADVANCED_FACE('',(#187,#35),#160,.F.);
#513=CLOSED_SHELL('',(#486,#487,#488,#489,#490,#491,#492,#493,#494,#495,
#496,#497,#498,#499,#500,#501,#502,#503,#504,#505,#506,#507,#508,#509,#510,
#511,#512));
#514=DERIVED_UNIT_ELEMENT(#516,1.);
#515=DERIVED_UNIT_ELEMENT(#857,-3.);
#516=(
MASS_UNIT()
NAMED_UNIT(*)
SI_UNIT(.KILO.,.GRAM.)
);
#517=DERIVED_UNIT((#514,#515));
#518=MEASURE_REPRESENTATION_ITEM('density measure',
POSITIVE_RATIO_MEASURE(7850.),#517);
#519=PROPERTY_DEFINITION_REPRESENTATION(#524,#521);
#520=PROPERTY_DEFINITION_REPRESENTATION(#525,#522);
#521=REPRESENTATION('material name',(#523),#854);
#522=REPRESENTATION('density',(#518),#854);
#523=DESCRIPTIVE_REPRESENTATION_ITEM('Steel','Steel');
#524=PROPERTY_DEFINITION('material property','material name',#869);
#525=PROPERTY_DEFINITION('material property','density of part',#869);
#526=AXIS2_PLACEMENT_3D('',#710,#570,#571);
#527=AXIS2_PLACEMENT_3D('',#711,#572,#573);
#528=AXIS2_PLACEMENT_3D('',#712,#574,#575);
#529=AXIS2_PLACEMENT_3D('',#714,#576,#577);
#530=AXIS2_PLACEMENT_3D('',#716,#578,#579);
#531=AXIS2_PLACEMENT_3D('',#717,#580,#581);
#532=AXIS2_PLACEMENT_3D('',#718,#582,#583);
#533=AXIS2_PLACEMENT_3D('',#727,#588,#589);
#534=AXIS2_PLACEMENT_3D('',#729,#590,#591);
#535=AXIS2_PLACEMENT_3D('',#731,#592,#593);
#536=AXIS2_PLACEMENT_3D('',#733,#594,#595);
#537=AXIS2_PLACEMENT_3D('',#734,#596,#597);
#538=AXIS2_PLACEMENT_3D('',#735,#598,#599);
#539=AXIS2_PLACEMENT_3D('',#737,#600,#601);
#540=AXIS2_PLACEMENT_3D('',#739,#603,#604);
#541=AXIS2_PLACEMENT_3D('',#741,#605,#606);
#542=AXIS2_PLACEMENT_3D('',#742,#607,#608);
#543=AXIS2_PLACEMENT_3D('',#744,#609,#610);
#544=AXIS2_PLACEMENT_3D('',#747,#612,#613);
#545=AXIS2_PLACEMENT_3D('',#748,#614,#615);
#546=AXIS2_PLACEMENT_3D('',#750,#616,#617);
#547=AXIS2_PLACEMENT_3D('',#752,#619,#620);
#548=AXIS2_PLACEMENT_3D('',#753,#621,#622);
#549=AXIS2_PLACEMENT_3D('',#762,#627,#628);
#550=AXIS2_PLACEMENT_3D('',#771,#633,#634);
#551=AXIS2_PLACEMENT_3D('',#777,#638,#639);
#552=AXIS2_PLACEMENT_3D('',#783,#643,#644);
#553=AXIS2_PLACEMENT_3D('',#789,#648,#649);
#554=AXIS2_PLACEMENT_3D('',#792,#652,#653);
#555=AXIS2_PLACEMENT_3D('',#798,#657,#658);
#556=AXIS2_PLACEMENT_3D('',#801,#661,#662);
#557=AXIS2_PLACEMENT_3D('',#810,#667,#668);
#558=AXIS2_PLACEMENT_3D('',#816,#672,#673);
#559=AXIS2_PLACEMENT_3D('',#822,#677,#678);
#560=AXIS2_PLACEMENT_3D('',#825,#681,#682);
#561=AXIS2_PLACEMENT_3D('',#831,#686,#687);
#562=AXIS2_PLACEMENT_3D('',#833,#688,#689);
#563=AXIS2_PLACEMENT_3D('',#836,#691,#692);
#564=AXIS2_PLACEMENT_3D('',#837,#693,#694);
#565=AXIS2_PLACEMENT_3D('',#841,#697,#698);
#566=AXIS2_PLACEMENT_3D('',#845,#701,#702);
#567=AXIS2_PLACEMENT_3D('',#847,#704,#705);
#568=AXIS2_PLACEMENT_3D('',#848,#706,#707);
#569=AXIS2_PLACEMENT_3D('',#849,#708,#709);
#570=DIRECTION('axis',(0.,0.,1.));
#571=DIRECTION('refdir',(1.,0.,0.));
#572=DIRECTION('axis',(0.,0.,1.));
#573=DIRECTION('refdir',(1.,0.,0.));
#574=DIRECTION('center_axis',(0.,0.,-1.));
#575=DIRECTION('ref_axis',(-1.,0.,0.));
#576=DIRECTION('center_axis',(0.,0.,-1.));
#577=DIRECTION('ref_axis',(-1.,0.,0.));
#578=DIRECTION('center_axis',(-1.46274927522766E-16,-1.,0.));
#579=DIRECTION('ref_axis',(1.,-1.46274927522766E-16,0.));
#580=DIRECTION('center_axis',(0.,0.,-1.));
#581=DIRECTION('ref_axis',(1.,0.,0.));
#582=DIRECTION('center_axis',(0.,0.,-1.));
#583=DIRECTION('ref_axis',(1.,0.,0.));
#584=DIRECTION('',(0.,-1.,0.));
#585=DIRECTION('',(1.,0.,0.));
#586=DIRECTION('',(0.,1.,0.));
#587=DIRECTION('',(1.,0.,0.));
#588=DIRECTION('center_axis',(0.,0.,-1.));
#589=DIRECTION('ref_axis',(-1.,0.,0.));
#590=DIRECTION('center_axis',(0.,0.,-1.));
#591=DIRECTION('ref_axis',(1.,0.,0.));
#592=DIRECTION('center_axis',(0.,-1.,0.));
#593=DIRECTION('ref_axis',(1.,0.,0.));
#594=DIRECTION('center_axis',(0.,0.,1.));
#595=DIRECTION('ref_axis',(1.,0.,0.));
#596=DIRECTION('center_axis',(0.,0.,1.));
#597=DIRECTION('ref_axis',(1.,0.,0.));
#598=DIRECTION('center_axis',(0.,0.,-1.));
#599=DIRECTION('ref_axis',(1.,0.,0.));
#600=DIRECTION('center_axis',(0.,0.,-1.));
#601=DIRECTION('ref_axis',(1.,0.,0.));
#602=DIRECTION('',(0.,0.,-1.));
#603=DIRECTION('center_axis',(0.,0.,1.));
#604=DIRECTION('ref_axis',(1.,0.,0.));
#605=DIRECTION('center_axis',(0.,0.,1.));
#606=DIRECTION('ref_axis',(1.,0.,0.));
#607=DIRECTION('center_axis',(0.,0.,-1.));
#608=DIRECTION('ref_axis',(1.,0.,0.));
#609=DIRECTION('center_axis',(0.,0.,-1.));
#610=DIRECTION('ref_axis',(1.,0.,0.));
#611=DIRECTION('',(0.,0.,-1.));
#612=DIRECTION('center_axis',(0.,0.,1.));
#613=DIRECTION('ref_axis',(1.,0.,0.));
#614=DIRECTION('center_axis',(0.,0.,-1.));
#615=DIRECTION('ref_axis',(1.,0.,0.));
#616=DIRECTION('center_axis',(0.,0.,1.));
#617=DIRECTION('ref_axis',(1.,0.,0.));
#618=DIRECTION('',(0.,0.,1.));
#619=DIRECTION('center_axis',(0.,0.,1.));
#620=DIRECTION('ref_axis',(1.,0.,0.));
#621=DIRECTION('center_axis',(0.,1.,0.));
#622=DIRECTION('ref_axis',(0.,0.,-1.));
#623=DIRECTION('',(0.,0.,1.));
#624=DIRECTION('',(-1.,0.,0.));
#625=DIRECTION('',(0.,0.,-1.));
#626=DIRECTION('',(-1.,0.,0.));
#627=DIRECTION('center_axis',(0.,1.,0.));
#628=DIRECTION('ref_axis',(0.,0.,-1.));
#629=DIRECTION('',(0.,0.,-1.));
#630=DIRECTION('',(-1.,0.,0.));
#631=DIRECTION('',(0.,0.,1.));
#632=DIRECTION('',(-1.,0.,0.));
#633=DIRECTION('center_axis',(0.,0.,1.));
#634=DIRECTION('ref_axis',(0.,1.,0.));
#635=DIRECTION('',(0.,-1.,0.));
#636=DIRECTION('',(0.,1.,0.));
#637=DIRECTION('',(-1.,0.,0.));
#638=DIRECTION('center_axis',(0.,0.,-1.));
#639=DIRECTION('ref_axis',(0.,-1.,0.));
#640=DIRECTION('',(0.,1.,0.));
#641=DIRECTION('',(-1.,0.,0.));
#642=DIRECTION('',(0.,-1.,0.));
#643=DIRECTION('center_axis',(0.,0.,-1.));
#644=DIRECTION('ref_axis',(0.,-1.,0.));
#645=DIRECTION('',(0.,-1.,0.));
#646=DIRECTION('',(0.,1.,0.));
#647=DIRECTION('',(-1.,0.,0.));
#648=DIRECTION('center_axis',(0.,-1.,0.));
#649=DIRECTION('ref_axis',(0.,0.,1.));
#650=DIRECTION('',(0.,0.,-1.));
#651=DIRECTION('',(0.,0.,1.));
#652=DIRECTION('center_axis',(0.,-1.,0.));
#653=DIRECTION('ref_axis',(0.,0.,1.));
#654=DIRECTION('',(0.,0.,1.));
#655=DIRECTION('',(0.,0.,-1.));
#656=DIRECTION('',(-1.,0.,0.));
#657=DIRECTION('center_axis',(0.,0.,1.));
#658=DIRECTION('ref_axis',(0.,1.,0.));
#659=DIRECTION('',(0.,1.,0.));
#660=DIRECTION('',(0.,-1.,0.));
#661=DIRECTION('center_axis',(0.,0.,1.));
#662=DIRECTION('ref_axis',(1.,0.,0.));
#663=DIRECTION('',(-1.,0.,0.));
#664=DIRECTION('',(0.,1.,0.));
#665=DIRECTION('',(1.,0.,0.));
#666=DIRECTION('',(0.,1.,0.));
#667=DIRECTION('center_axis',(1.,0.,0.));
#668=DIRECTION('ref_axis',(0.,0.,-1.));
#669=DIRECTION('',(0.,0.,1.));
#670=DIRECTION('',(0.,0.,-1.));
#671=DIRECTION('',(0.,1.,0.));
#672=DIRECTION('center_axis',(0.,0.,-1.));
#673=DIRECTION('ref_axis',(-1.,0.,0.));
#674=DIRECTION('',(1.,0.,0.));
#675=DIRECTION('',(-1.,0.,0.));
#676=DIRECTION('',(0.,1.,0.));
#677=DIRECTION('center_axis',(-1.,0.,0.));
#678=DIRECTION('ref_axis',(0.,0.,1.));
#679=DIRECTION('',(0.,0.,-1.));
#680=DIRECTION('',(0.,0.,1.));
#681=DIRECTION('center_axis',(0.,1.,0.));
#682=DIRECTION('ref_axis',(0.,0.,1.));
#683=DIRECTION('',(1.,0.,0.));
#684=DIRECTION('',(0.,0.,-1.));
#685=DIRECTION('',(0.,0.,1.));
#686=DIRECTION('center_axis',(0.,-1.,0.));
#687=DIRECTION('ref_axis',(-1.,0.,0.));
#688=DIRECTION('center_axis',(0.,1.,0.));
#689=DIRECTION('ref_axis',(-1.,0.,0.));
#690=DIRECTION('',(0.,1.,0.));
#691=DIRECTION('center_axis',(0.,-1.,0.));
#692=DIRECTION('ref_axis',(-1.,0.,0.));
#693=DIRECTION('center_axis',(1.,0.,0.));
#694=DIRECTION('ref_axis',(0.,0.,1.));
#695=DIRECTION('',(0.,1.,0.));
#696=DIRECTION('',(0.,0.,1.));
#697=DIRECTION('center_axis',(-1.,0.,0.));
#698=DIRECTION('ref_axis',(0.,0.,-1.));
#699=DIRECTION('',(0.,0.,-1.));
#700=DIRECTION('',(0.,-1.,0.));
#701=DIRECTION('center_axis',(0.,0.,1.));
#702=DIRECTION('ref_axis',(-1.,0.,0.));
#703=DIRECTION('',(-1.,0.,0.));
#704=DIRECTION('center_axis',(0.,1.,0.));
#705=DIRECTION('ref_axis',(-1.,0.,0.));
#706=DIRECTION('center_axis',(0.,1.,0.));
#707=DIRECTION('ref_axis',(-1.,0.,0.));
#708=DIRECTION('',(0.,0.,1.));
#709=DIRECTION('',(1.,0.,0.));
#710=CARTESIAN_POINT('',(0.,0.,0.));
#711=CARTESIAN_POINT('',(0.,0.,0.));
#712=CARTESIAN_POINT('Origin',(-36.500000372529,7.85,-39.2000003427267));
#713=CARTESIAN_POINT('',(-30.9100254983158,7.85,-37.2000003427267));
#714=CARTESIAN_POINT('Origin',(-36.500000372529,7.85,-37.2000003427267));
#715=CARTESIAN_POINT('',(-32.900000372529,7.85,-39.0000003427267));
#716=CARTESIAN_POINT('Origin',(-30.9100254983158,7.85,-39.2000003427267));
#717=CARTESIAN_POINT('Origin',(-36.500000372529,7.85,-39.0000003427267));
#718=CARTESIAN_POINT('Origin',(-49.200000372529,0.,-37.2000003427267));
#719=CARTESIAN_POINT('',(-23.800000372529,-0.8,-37.2000003427267));
#720=CARTESIAN_POINT('',(-23.800000372529,16.5,-37.2000003427267));
#721=CARTESIAN_POINT('',(-23.800000372529,0.,-37.2000003427267));
#722=CARTESIAN_POINT('',(-49.200000372529,-0.8,-37.2000003427267));
#723=CARTESIAN_POINT('',(-42.850000372529,-0.8,-37.2000003427267));
#724=CARTESIAN_POINT('',(-49.200000372529,16.5,-37.2000003427267));
#725=CARTESIAN_POINT('',(-49.200000372529,0.,-37.2000003427267));
#726=CARTESIAN_POINT('',(-42.850000372529,16.5,-37.2000003427267));
#727=CARTESIAN_POINT('Origin',(-36.500000372529,7.85,-35.6000003427267));
#728=CARTESIAN_POINT('',(-33.300000372529,7.85,-36.0000003427267));
#729=CARTESIAN_POINT('Origin',(-36.500000372529,7.85,-36.0000003427267));
#730=CARTESIAN_POINT('',(-32.900000372529,7.85,-35.6000003427267));
#731=CARTESIAN_POINT('Origin',(-33.300000372529,7.85,-35.6000003427267));
#732=CARTESIAN_POINT('',(-40.100000372529,7.85,-35.6000003427267));
#733=CARTESIAN_POINT('Origin',(-36.500000372529,7.85,-35.6000003427267));
#734=CARTESIAN_POINT('Origin',(-36.500000372529,7.85,-35.6000003427267));
#735=CARTESIAN_POINT('Origin',(-36.500000372529,7.85,-35.0000003427267));
#736=CARTESIAN_POINT('',(-40.100000372529,7.85,-35.0000003427267));
#737=CARTESIAN_POINT('Origin',(-36.500000372529,7.85,-35.0000003427267));
#738=CARTESIAN_POINT('',(-40.100000372529,7.85,-35.0000003427267));
#739=CARTESIAN_POINT('Origin',(-36.500000372529,7.85,-36.0000003427267));
#740=CARTESIAN_POINT('',(-38.200000372529,7.85,-36.0000003427267));
#741=CARTESIAN_POINT('Origin',(-36.500000372529,7.85,-36.0000003427267));
#742=CARTESIAN_POINT('Origin',(-36.500000372529,7.85,-35.0000003427267));
#743=CARTESIAN_POINT('',(-40.100000372529,7.85,-21.8000003427267));
#744=CARTESIAN_POINT('Origin',(-36.500000372529,7.85,-21.8000003427267));
#745=CARTESIAN_POINT('',(-40.100000372529,7.85,-23.0000003427267));
#746=CARTESIAN_POINT('',(-40.100000372529,7.85,-35.0000003427267));
#747=CARTESIAN_POINT('Origin',(-36.500000372529,7.85,-23.0000003427267));
#748=CARTESIAN_POINT('Origin',(-36.500000372529,7.85,-35.0000003427267));
#749=CARTESIAN_POINT('',(-38.200000372529,7.85,-39.0000003427267));
#750=CARTESIAN_POINT('Origin',(-36.500000372529,7.85,-39.0000003427267));
#751=CARTESIAN_POINT('',(-38.200000372529,7.85,-35.0000003427267));
#752=CARTESIAN_POINT('Origin',(-36.500000372529,7.85,-39.0000003427267));
#753=CARTESIAN_POINT('Origin',(0.,11.2,-26.8000003427267));
#754=CARTESIAN_POINT('',(-25.000000372529,11.2,-31.2000003427267));
#755=CARTESIAN_POINT('',(-25.000000372529,11.2,-26.8000003427267));
#756=CARTESIAN_POINT('',(-25.000000372529,11.2,-30.9000003427267));
#757=CARTESIAN_POINT('',(-23.800000372529,11.2,-31.2000003427267));
#758=CARTESIAN_POINT('',(0.,11.2,-31.2000003427267));
#759=CARTESIAN_POINT('',(-23.800000372529,11.2,-26.8000003427267));
#760=CARTESIAN_POINT('',(-23.800000372529,11.2,-31.5000003427267));
#761=CARTESIAN_POINT('',(0.,11.2,-26.8000003427267));
#762=CARTESIAN_POINT('Origin',(0.,11.2,-26.8000003427267));
#763=CARTESIAN_POINT('',(-48.000000372529,11.2,-26.8000003427267));
#764=CARTESIAN_POINT('',(-48.000000372529,11.2,-31.2000003427267));
#765=CARTESIAN_POINT('',(-48.000000372529,11.2,-24.9000003427267));
#766=CARTESIAN_POINT('',(-49.200000372529,11.2,-26.8000003427267));
#767=CARTESIAN_POINT('',(0.,11.2,-26.8000003427267));
#768=CARTESIAN_POINT('',(-49.200000372529,11.2,-31.2000003427267));
#769=CARTESIAN_POINT('',(-49.200000372529,11.2,-24.3000003427267));
#770=CARTESIAN_POINT('',(0.,11.2,-31.2000003427267));
#771=CARTESIAN_POINT('Origin',(0.,1.2,-26.8000003427267));
#772=CARTESIAN_POINT('',(-25.000000372529,1.2,-26.8000003427267));
#773=CARTESIAN_POINT('',(-25.000000372529,0.599999999999999,-26.8000003427267));
#774=CARTESIAN_POINT('',(-23.800000372529,1.2,-26.8000003427267));
#775=CARTESIAN_POINT('',(-23.800000372529,0.599999999999999,-26.8000003427267));
#776=CARTESIAN_POINT('',(0.,1.2,-26.8000003427267));
#777=CARTESIAN_POINT('Origin',(0.,11.2,-31.2000003427267));
#778=CARTESIAN_POINT('',(-25.000000372529,1.2,-31.2000003427267));
#779=CARTESIAN_POINT('',(-25.000000372529,5.6,-31.2000003427267));
#780=CARTESIAN_POINT('',(-23.800000372529,1.2,-31.2000003427267));
#781=CARTESIAN_POINT('',(0.,1.2,-31.2000003427267));
#782=CARTESIAN_POINT('',(-23.800000372529,5.6,-31.2000003427267));
#783=CARTESIAN_POINT('Origin',(0.,11.2,-31.2000003427267));
#784=CARTESIAN_POINT('',(-48.000000372529,1.2,-31.2000003427267));
#785=CARTESIAN_POINT('',(-48.000000372529,5.6,-31.2000003427267));
#786=CARTESIAN_POINT('',(-49.200000372529,1.2,-31.2000003427267));
#787=CARTESIAN_POINT('',(-49.200000372529,5.6,-31.2000003427267));
#788=CARTESIAN_POINT('',(0.,1.2,-31.2000003427267));
#789=CARTESIAN_POINT('Origin',(0.,1.2,-31.2000003427267));
#790=CARTESIAN_POINT('',(-25.000000372529,1.2,-33.1000003427267));
#791=CARTESIAN_POINT('',(-23.800000372529,1.2,-33.7000003427267));
#792=CARTESIAN_POINT('Origin',(0.,1.2,-31.2000003427267));
#793=CARTESIAN_POINT('',(-48.000000372529,1.2,-26.8000003427267));
#794=CARTESIAN_POINT('',(-48.000000372529,1.2,-27.1000003427267));
#795=CARTESIAN_POINT('',(-49.200000372529,1.2,-26.8000003427267));
#796=CARTESIAN_POINT('',(-49.200000372529,1.2,-26.5000003427267));
#797=CARTESIAN_POINT('',(0.,1.2,-26.8000003427267));
#798=CARTESIAN_POINT('Origin',(0.,1.2,-26.8000003427267));
#799=CARTESIAN_POINT('',(-48.000000372529,0.599999999999999,-26.8000003427267));
#800=CARTESIAN_POINT('',(-49.200000372529,0.599999999999999,-26.8000003427267));
#801=CARTESIAN_POINT('Origin',(-48.000000372529,0.,-35.0000003427267));
#802=CARTESIAN_POINT('',(-25.000000372529,0.,-35.0000003427267));
#803=CARTESIAN_POINT('',(-48.000000372529,0.,-35.0000003427267));
#804=CARTESIAN_POINT('',(-42.250000372529,0.,-35.0000003427267));
#805=CARTESIAN_POINT('',(-25.000000372529,16.5,-35.0000003427267));
#806=CARTESIAN_POINT('',(-25.000000372529,0.,-35.0000003427267));
#807=CARTESIAN_POINT('',(-48.000000372529,16.5,-35.0000003427267));
#808=CARTESIAN_POINT('',(-48.000000372529,16.5,-35.0000003427267));
#809=CARTESIAN_POINT('',(-48.000000372529,0.,-35.0000003427267));
#810=CARTESIAN_POINT('Origin',(-48.000000372529,0.,-23.0000003427267));
#811=CARTESIAN_POINT('',(-48.000000372529,0.,-23.0000003427267));
#812=CARTESIAN_POINT('',(-48.000000372529,0.,-26.0000003427267));
#813=CARTESIAN_POINT('',(-48.000000372529,16.5,-23.0000003427267));
#814=CARTESIAN_POINT('',(-48.000000372529,16.5,-23.0000003427267));
#815=CARTESIAN_POINT('',(-48.000000372529,0.,-23.0000003427267));
#816=CARTESIAN_POINT('Origin',(-25.000000372529,0.,-23.0000003427267));
#817=CARTESIAN_POINT('',(-25.000000372529,0.,-23.0000003427267));
#818=CARTESIAN_POINT('',(-30.750000372529,0.,-23.0000003427267));
#819=CARTESIAN_POINT('',(-25.000000372529,16.5,-23.0000003427267));
#820=CARTESIAN_POINT('',(-25.000000372529,16.5,-23.0000003427267));
#821=CARTESIAN_POINT('',(-25.000000372529,0.,-23.0000003427267));
#822=CARTESIAN_POINT('Origin',(-25.000000372529,0.,-35.0000003427267));
#823=CARTESIAN_POINT('',(-25.000000372529,0.,-32.0000003427267));
#824=CARTESIAN_POINT('',(-25.000000372529,16.5,-35.0000003427267));
#825=CARTESIAN_POINT('Origin',(-36.500000372529,16.5,-29.0000003427267));
#826=CARTESIAN_POINT('',(-49.200000372529,16.5,-21.8000003427267));
#827=CARTESIAN_POINT('',(-23.800000372529,16.5,-21.8000003427267));
#828=CARTESIAN_POINT('',(-23.800000372529,16.5,-21.8000003427267));
#829=CARTESIAN_POINT('',(-23.800000372529,16.5,-36.2000003427267));
#830=CARTESIAN_POINT('',(-49.200000372529,16.5,-21.8000003427267));
#831=CARTESIAN_POINT('Origin',(-36.500000372529,0.,-29.0000003427267));
#832=CARTESIAN_POINT('',(-35.000000372529,-0.8,-29.0000003427267));
#833=CARTESIAN_POINT('Origin',(-36.500000372529,-0.8,-29.0000003427267));
#834=CARTESIAN_POINT('',(-35.000000372529,0.,-29.0000003427267));
#835=CARTESIAN_POINT('',(-35.000000372529,0.,-29.0000003427267));
#836=CARTESIAN_POINT('Origin',(-36.500000372529,0.,-29.0000003427267));
#837=CARTESIAN_POINT('Origin',(-23.800000372529,0.,-36.2000003427267));
#838=CARTESIAN_POINT('',(-23.800000372529,-0.8,-21.8000003427267));
#839=CARTESIAN_POINT('',(-23.800000372529,0.,-21.8000003427267));
#840=CARTESIAN_POINT('',(-23.800000372529,-0.8,-36.2000003427267));
#841=CARTESIAN_POINT('Origin',(-49.200000372529,0.,-21.8000003427267));
#842=CARTESIAN_POINT('',(-49.200000372529,-0.8,-21.8000003427267));
#843=CARTESIAN_POINT('',(-49.200000372529,-0.8,-21.8000003427267));
#844=CARTESIAN_POINT('',(-49.200000372529,0.,-21.8000003427267));
#845=CARTESIAN_POINT('Origin',(-23.800000372529,0.,-21.8000003427267));
#846=CARTESIAN_POINT('',(-23.800000372529,-0.8,-21.8000003427267));
#847=CARTESIAN_POINT('Origin',(-36.500000372529,0.,-29.0000003427267));
#848=CARTESIAN_POINT('Origin',(-36.500000372529,-0.8,-29.0000003427267));
#849=CARTESIAN_POINT('',(0.,0.,0.));
#850=UNCERTAINTY_MEASURE_WITH_UNIT(LENGTH_MEASURE(0.01),#856,
'DISTANCE_ACCURACY_VALUE',
'Maximum model space distance between geometric entities at asserted c
onnectivities');
#851=UNCERTAINTY_MEASURE_WITH_UNIT(LENGTH_MEASURE(0.01),#856,
'DISTANCE_ACCURACY_VALUE',
'Maximum model space distance between geometric entities at asserted c
onnectivities');
#852=UNCERTAINTY_MEASURE_WITH_UNIT(LENGTH_MEASURE(0.01),#856,
'DISTANCE_ACCURACY_VALUE',
'Maximum model space distance between geometric entities at asserted c
onnectivities');
#853=(
GEOMETRIC_REPRESENTATION_CONTEXT(3)
GLOBAL_UNCERTAINTY_ASSIGNED_CONTEXT((#850))
GLOBAL_UNIT_ASSIGNED_CONTEXT((#856,#858,#859))
REPRESENTATION_CONTEXT('','3D')
);
#854=(
GEOMETRIC_REPRESENTATION_CONTEXT(3)
GLOBAL_UNCERTAINTY_ASSIGNED_CONTEXT((#851))
GLOBAL_UNIT_ASSIGNED_CONTEXT((#856,#858,#859))
REPRESENTATION_CONTEXT('','3D')
);
#855=(
GEOMETRIC_REPRESENTATION_CONTEXT(3)
GLOBAL_UNCERTAINTY_ASSIGNED_CONTEXT((#852))
GLOBAL_UNIT_ASSIGNED_CONTEXT((#856,#858,#859))
REPRESENTATION_CONTEXT('','3D')
);
#856=(
LENGTH_UNIT()
NAMED_UNIT(*)
SI_UNIT(.MILLI.,.METRE.)
);
#857=(
LENGTH_UNIT()
NAMED_UNIT(*)
SI_UNIT($,.METRE.)
);
#858=(
NAMED_UNIT(*)
PLANE_ANGLE_UNIT()
SI_UNIT($,.RADIAN.)
);
#859=(
NAMED_UNIT(*)
SI_UNIT($,.STERADIAN.)
SOLID_ANGLE_UNIT()
);
#860=SHAPE_DEFINITION_REPRESENTATION(#862,#865);
#861=SHAPE_DEFINITION_REPRESENTATION(#863,#866);
#862=PRODUCT_DEFINITION_SHAPE('',$,#868);
#863=PRODUCT_DEFINITION_SHAPE('',$,#869);
#864=PRODUCT_DEFINITION_SHAPE($,$,#14);
#865=SHAPE_REPRESENTATION('',(#526,#569),#853);
#866=SHAPE_REPRESENTATION('',(#527),#854);
#867=PRODUCT_DEFINITION_CONTEXT('part definition',#875,'design');
#868=PRODUCT_DEFINITION('Neck Motor Holder2','Neck Motor Holder2 v4',#870,
#867);
#869=PRODUCT_DEFINITION('Arm1','Arm1',#871,#867);
#870=PRODUCT_DEFINITION_FORMATION('',$,#877);
#871=PRODUCT_DEFINITION_FORMATION('',$,#878);
#872=PRODUCT_RELATED_PRODUCT_CATEGORY('Neck Motor Holder2 v4',
'Neck Motor Holder2 v4',(#877));
#873=PRODUCT_RELATED_PRODUCT_CATEGORY('Arm1','Arm1',(#878));
#874=APPLICATION_PROTOCOL_DEFINITION('international standard',
'automotive_design',2009,#875);
#875=APPLICATION_CONTEXT(
'Core Data for Automotive Mechanical Design Process');
#876=PRODUCT_CONTEXT('part definition',#875,'mechanical');
#877=PRODUCT('Neck Motor Holder2','Neck Motor Holder2 v4',$,(#876));
#878=PRODUCT('Arm1','Arm1',$,(#876));
#879=PRESENTATION_STYLE_ASSIGNMENT((#880));
#880=SURFACE_STYLE_USAGE(.BOTH.,#881);
#881=SURFACE_SIDE_STYLE('',(#882));
#882=SURFACE_STYLE_FILL_AREA(#883);
#883=FILL_AREA_STYLE('Steel - Satin',(#884));
#884=FILL_AREA_STYLE_COLOUR('Steel - Satin',#885);
#885=COLOUR_RGB('Steel - Satin',0.627450980392157,0.627450980392157,0.627450980392157);
ENDSEC;
END-ISO-10303-21;
