ISO-10303-21;
HEADER;
/* Generated by software containing ST-Developer
 * from STEP Tools, Inc. (www.steptools.com) 
 */

FILE_DESCRIPTION(
/* description */ (''),
/* implementation_level */ '2;1');

FILE_NAME(
/* name */ 'Parts.step',
/* time_stamp */ '2026-06-03T21:08:40+09:00',
/* author */ (''),
/* organization */ (''),
/* preprocessor_version */ 'ST-DEVELOPER v20.1',
/* originating_system */ 'Autodesk Translation Framework v15.8.0.0',
/* authorisation */ '');

FILE_SCHEMA (('AUTOMOTIVE_DESIGN { 1 0 10303 214 3 1 1 }'));
ENDSEC;

DATA;
#10=MECHANICAL_DESIGN_GEOMETRIC_PRESENTATION_REPRESENTATION('',(#36,#37,
#38),#1140);
#11=ITEM_DEFINED_TRANSFORMATION($,$,#620,#689);
#12=ITEM_DEFINED_TRANSFORMATION($,$,#637,#690);
#13=ITEM_DEFINED_TRANSFORMATION($,$,#672,#691);
#14=(
REPRESENTATION_RELATIONSHIP($,$,#1157,#1156)
REPRESENTATION_RELATIONSHIP_WITH_TRANSFORMATION(#11)
SHAPE_REPRESENTATION_RELATIONSHIP()
);
#15=(
REPRESENTATION_RELATIONSHIP($,$,#1158,#1156)
REPRESENTATION_RELATIONSHIP_WITH_TRANSFORMATION(#12)
SHAPE_REPRESENTATION_RELATIONSHIP()
);
#16=(
REPRESENTATION_RELATIONSHIP($,$,#1159,#1156)
REPRESENTATION_RELATIONSHIP_WITH_TRANSFORMATION(#13)
SHAPE_REPRESENTATION_RELATIONSHIP()
);
#17=CONTEXT_DEPENDENT_SHAPE_REPRESENTATION(#14,#1153);
#18=CONTEXT_DEPENDENT_SHAPE_REPRESENTATION(#15,#1154);
#19=CONTEXT_DEPENDENT_SHAPE_REPRESENTATION(#16,#1155);
#20=NEXT_ASSEMBLY_USAGE_OCCURRENCE('Neck:1','Neck:1','Neck:1',#1161,#1162,
'Neck:1');
#21=NEXT_ASSEMBLY_USAGE_OCCURRENCE('PipeHolder(Small):1',
'PipeHolder(Small):1','PipeHolder(Small):1',#1161,#1163,
'PipeHolder(Small):1');
#22=NEXT_ASSEMBLY_USAGE_OCCURRENCE('Eye LED Holder:1',
'Eye LED Holder:1','Eye LED Holder:1',#1161,#1164,'Eye LED Holder:1');
#23=B_SPLINE_CURVE_WITH_KNOTS('',3,(#913,#914,#915,#916,#917,#918,#919,
#920,#921,#922,#923,#924),.UNSPECIFIED.,.F.,.F.,(4,2,2,2,2,4),(0.487691162299712,
0.488928145773553,0.49397964247224,0.503276660526451,0.52254730734268,0.538499574100981),
 .UNSPECIFIED.);
#24=B_SPLINE_CURVE_WITH_KNOTS('',3,(#928,#929,#930,#931,#932,#933,#934,
#935,#936,#937,#938,#939,#940,#941,#942,#943,#944,#945,#946,#947,#948,#949),
 .UNSPECIFIED.,.F.,.F.,(4,2,2,2,2,2,2,2,2,2,4),(0.10926243211985,0.110748857495042,
0.127794890623594,0.140672198793125,0.146123057381932,0.149798972810834,
0.153334293317421,0.158094873834833,0.168184320299516,0.187449164515446,
0.194033085471387),.UNSPECIFIED.);
#25=B_SPLINE_CURVE_WITH_KNOTS('',3,(#953,#954,#955,#956,#957,#958,#959,
#960,#961,#962,#963,#964,#965,#966,#967,#968,#969,#970,#971,#972,#973,#974),
 .UNSPECIFIED.,.F.,.F.,(4,2,2,2,2,2,2,2,2,2,4),(0.109262432126028,0.1107488575013,
0.127794890630752,0.140672198800914,0.146123057389986,0.149798972819112,
0.153334293325888,0.158094873843437,0.168184320308434,0.187449164524981,
0.194033085481127),.UNSPECIFIED.);
#26=B_SPLINE_CURVE_WITH_KNOTS('',3,(#978,#979,#980,#981,#982,#983,#984,
#985,#986,#987,#988,#989,#990,#991,#992,#993,#994,#995,#996,#997,#998,#999),
 .UNSPECIFIED.,.F.,.F.,(4,2,2,2,2,2,2,2,2,2,4),(0.109262432139107,0.110748857514557,
0.127794890646018,0.140672198817662,0.146123057407379,0.149798972836895,
0.153334293344015,0.158094873862019,0.168184320327959,0.187449164546271,
0.194033085503007),.UNSPECIFIED.);
#27=B_SPLINE_CURVE_WITH_KNOTS('',3,(#1003,#1004,#1005,#1006,#1007,#1008,
#1009,#1010,#1011,#1012,#1013,#1014),.UNSPECIFIED.,.F.,.F.,(4,2,2,2,2,4),
(0.437598772844992,0.451248891174455,0.472409642586809,0.480149215575204,
0.484812969261024,0.486323255790992),.UNSPECIFIED.);
#28=B_SPLINE_CURVE_WITH_KNOTS('',3,(#1015,#1016,#1017,#1018),
 .UNSPECIFIED.,.F.,.F.,(4,4),(0.486323255790992,0.487691162299712),
 .UNSPECIFIED.);
#29=TOROIDAL_SURFACE('',#638,4.8,1.);
#30=SHAPE_REPRESENTATION_RELATIONSHIP('SRR','None',#1157,#33);
#31=SHAPE_REPRESENTATION_RELATIONSHIP('SRR','None',#1158,#34);
#32=SHAPE_REPRESENTATION_RELATIONSHIP('SRR','None',#1159,#35);
#33=ADVANCED_BREP_SHAPE_REPRESENTATION('',(#39),#1137);
#34=ADVANCED_BREP_SHAPE_REPRESENTATION('',(#40),#1138);
#35=ADVANCED_BREP_SHAPE_REPRESENTATION('',(#41),#1139);
#36=STYLED_ITEM('',(#1180),#39);
#37=STYLED_ITEM('',(#1180),#40);
#38=STYLED_ITEM('',(#1180),#41);
#39=MANIFOLD_SOLID_BREP('Body1',#582);
#40=MANIFOLD_SOLID_BREP('Body1',#583);
#41=MANIFOLD_SOLID_BREP('Body1',#584);
#42=FACE_BOUND('',#103,.T.);
#43=FACE_BOUND('',#106,.T.);
#44=FACE_BOUND('',#110,.T.);
#45=FACE_BOUND('',#112,.T.);
#46=FACE_BOUND('',#117,.T.);
#47=FACE_BOUND('',#124,.T.);
#48=FACE_BOUND('',#126,.T.);
#49=FACE_BOUND('',#127,.T.);
#50=FACE_BOUND('',#128,.T.);
#51=FACE_BOUND('',#129,.T.);
#52=FACE_BOUND('',#130,.T.);
#53=PLANE('',#624);
#54=PLANE('',#629);
#55=PLANE('',#635);
#56=PLANE('',#636);
#57=PLANE('',#651);
#58=PLANE('',#670);
#59=PLANE('',#671);
#60=PLANE('',#673);
#61=PLANE('',#674);
#62=PLANE('',#675);
#63=PLANE('',#676);
#64=PLANE('',#677);
#65=PLANE('',#678);
#66=PLANE('',#679);
#67=PLANE('',#683);
#68=PLANE('',#687);
#69=PLANE('',#688);
#70=FACE_OUTER_BOUND('',#101,.T.);
#71=FACE_OUTER_BOUND('',#102,.T.);
#72=FACE_OUTER_BOUND('',#104,.T.);
#73=FACE_OUTER_BOUND('',#105,.T.);
#74=FACE_OUTER_BOUND('',#107,.T.);
#75=FACE_OUTER_BOUND('',#108,.T.);
#76=FACE_OUTER_BOUND('',#109,.T.);
#77=FACE_OUTER_BOUND('',#111,.T.);
#78=FACE_OUTER_BOUND('',#113,.T.);
#79=FACE_OUTER_BOUND('',#114,.T.);
#80=FACE_OUTER_BOUND('',#115,.T.);
#81=FACE_OUTER_BOUND('',#116,.T.);
#82=FACE_OUTER_BOUND('',#118,.T.);
#83=FACE_OUTER_BOUND('',#119,.T.);
#84=FACE_OUTER_BOUND('',#120,.T.);
#85=FACE_OUTER_BOUND('',#121,.T.);
#86=FACE_OUTER_BOUND('',#122,.T.);
#87=FACE_OUTER_BOUND('',#123,.T.);
#88=FACE_OUTER_BOUND('',#125,.T.);
#89=FACE_OUTER_BOUND('',#131,.T.);
#90=FACE_OUTER_BOUND('',#132,.T.);
#91=FACE_OUTER_BOUND('',#133,.T.);
#92=FACE_OUTER_BOUND('',#134,.T.);
#93=FACE_OUTER_BOUND('',#135,.T.);
#94=FACE_OUTER_BOUND('',#136,.T.);
#95=FACE_OUTER_BOUND('',#137,.T.);
#96=FACE_OUTER_BOUND('',#138,.T.);
#97=FACE_OUTER_BOUND('',#139,.T.);
#98=FACE_OUTER_BOUND('',#140,.T.);
#99=FACE_OUTER_BOUND('',#141,.T.);
#100=FACE_OUTER_BOUND('',#142,.T.);
#101=EDGE_LOOP('',(#382,#383,#384,#385));
#102=EDGE_LOOP('',(#386));
#103=EDGE_LOOP('',(#387));
#104=EDGE_LOOP('',(#388,#389,#390,#391));
#105=EDGE_LOOP('',(#392));
#106=EDGE_LOOP('',(#393));
#107=EDGE_LOOP('',(#394,#395,#396,#397));
#108=EDGE_LOOP('',(#398,#399,#400,#401));
#109=EDGE_LOOP('',(#402));
#110=EDGE_LOOP('',(#403));
#111=EDGE_LOOP('',(#404));
#112=EDGE_LOOP('',(#405));
#113=EDGE_LOOP('',(#406,#407,#408,#409,#410,#411,#412,#413,#414,#415,#416,
#417,#418,#419));
#114=EDGE_LOOP('',(#420,#421,#422,#423,#424));
#115=EDGE_LOOP('',(#425,#426,#427,#428));
#116=EDGE_LOOP('',(#429));
#117=EDGE_LOOP('',(#430));
#118=EDGE_LOOP('',(#431,#432,#433,#434,#435,#436));
#119=EDGE_LOOP('',(#437,#438,#439,#440,#441,#442));
#120=EDGE_LOOP('',(#443,#444,#445,#446,#447,#448));
#121=EDGE_LOOP('',(#449,#450,#451,#452,#453,#454,#455));
#122=EDGE_LOOP('',(#456,#457,#458,#459));
#123=EDGE_LOOP('',(#460));
#124=EDGE_LOOP('',(#461,#462,#463,#464,#465,#466,#467,#468,#469,#470,#471));
#125=EDGE_LOOP('',(#472));
#126=EDGE_LOOP('',(#473));
#127=EDGE_LOOP('',(#474));
#128=EDGE_LOOP('',(#475));
#129=EDGE_LOOP('',(#476));
#130=EDGE_LOOP('',(#477));
#131=EDGE_LOOP('',(#478,#479,#480,#481));
#132=EDGE_LOOP('',(#482,#483,#484,#485));
#133=EDGE_LOOP('',(#486,#487,#488,#489));
#134=EDGE_LOOP('',(#490,#491,#492,#493));
#135=EDGE_LOOP('',(#494,#495,#496,#497));
#136=EDGE_LOOP('',(#498,#499,#500,#501));
#137=EDGE_LOOP('',(#502,#503,#504,#505));
#138=EDGE_LOOP('',(#506,#507,#508,#509));
#139=EDGE_LOOP('',(#510,#511,#512,#513));
#140=EDGE_LOOP('',(#514,#515,#516,#517));
#141=EDGE_LOOP('',(#518,#519,#520,#521,#522,#523,#524,#525,#526,#527));
#142=EDGE_LOOP('',(#528,#529,#530,#531,#532,#533,#534,#535,#536,#537));
#143=LINE('',#881,#180);
#144=LINE('',#890,#181);
#145=LINE('',#899,#182);
#146=LINE('',#902,#183);
#147=LINE('',#1023,#184);
#148=LINE('',#1028,#185);
#149=LINE('',#1036,#186);
#150=LINE('',#1043,#187);
#151=LINE('',#1050,#188);
#152=LINE('',#1054,#189);
#153=LINE('',#1061,#190);
#154=LINE('',#1069,#191);
#155=LINE('',#1071,#192);
#156=LINE('',#1073,#193);
#157=LINE('',#1074,#194);
#158=LINE('',#1077,#195);
#159=LINE('',#1079,#196);
#160=LINE('',#1080,#197);
#161=LINE('',#1083,#198);
#162=LINE('',#1085,#199);
#163=LINE('',#1086,#200);
#164=LINE('',#1089,#201);
#165=LINE('',#1091,#202);
#166=LINE('',#1092,#203);
#167=LINE('',#1095,#204);
#168=LINE('',#1097,#205);
#169=LINE('',#1098,#206);
#170=LINE('',#1101,#207);
#171=LINE('',#1103,#208);
#172=LINE('',#1104,#209);
#173=LINE('',#1107,#210);
#174=LINE('',#1109,#211);
#175=LINE('',#1110,#212);
#176=LINE('',#1116,#213);
#177=LINE('',#1119,#214);
#178=LINE('',#1121,#215);
#179=LINE('',#1122,#216);
#180=VECTOR('',#700,4.8);
#181=VECTOR('',#711,2.5);
#182=VECTOR('',#722,0.950000000000007);
#183=VECTOR('',#727,6.);
#184=VECTOR('',#754,3.8);
#185=VECTOR('',#759,2.6);
#186=VECTOR('',#770,0.700000000000003);
#187=VECTOR('',#779,0.700000000000003);
#188=VECTOR('',#788,0.700000000000003);
#189=VECTOR('',#793,0.699999999999998);
#190=VECTOR('',#802,7.);
#191=VECTOR('',#813,10.);
#192=VECTOR('',#814,10.);
#193=VECTOR('',#815,10.);
#194=VECTOR('',#816,10.);
#195=VECTOR('',#819,10.);
#196=VECTOR('',#820,10.);
#197=VECTOR('',#821,10.);
#198=VECTOR('',#824,10.);
#199=VECTOR('',#825,10.);
#200=VECTOR('',#826,10.);
#201=VECTOR('',#829,10.);
#202=VECTOR('',#830,10.);
#203=VECTOR('',#831,10.);
#204=VECTOR('',#834,10.);
#205=VECTOR('',#835,10.);
#206=VECTOR('',#836,10.);
#207=VECTOR('',#839,10.);
#208=VECTOR('',#840,10.);
#209=VECTOR('',#841,10.);
#210=VECTOR('',#844,10.);
#211=VECTOR('',#845,10.);
#212=VECTOR('',#846,10.);
#213=VECTOR('',#853,10.);
#214=VECTOR('',#856,10.);
#215=VECTOR('',#857,10.);
#216=VECTOR('',#858,10.);
#217=CIRCLE('',#622,4.8);
#218=CIRCLE('',#623,4.8);
#219=CIRCLE('',#625,6.);
#220=CIRCLE('',#627,2.5);
#221=CIRCLE('',#628,2.5);
#222=CIRCLE('',#630,6.);
#223=CIRCLE('',#632,0.950000000000006);
#224=CIRCLE('',#633,0.950000000000006);
#225=CIRCLE('',#639,3.8);
#226=CIRCLE('',#640,1.);
#227=CIRCLE('',#641,4.8);
#228=CIRCLE('',#642,4.8);
#229=CIRCLE('',#643,4.8);
#230=CIRCLE('',#644,4.8);
#231=CIRCLE('',#645,3.8);
#232=CIRCLE('',#647,3.8);
#233=CIRCLE('',#649,2.6);
#234=CIRCLE('',#650,2.6);
#235=CIRCLE('',#653,0.700000000000003);
#236=CIRCLE('',#654,0.700000000000003);
#237=CIRCLE('',#655,0.700000000000003);
#238=CIRCLE('',#657,0.700000000000003);
#239=CIRCLE('',#658,0.700000000000003);
#240=CIRCLE('',#659,0.700000000000003);
#241=CIRCLE('',#661,0.700000000000003);
#242=CIRCLE('',#662,0.700000000000003);
#243=CIRCLE('',#663,0.700000000000003);
#244=CIRCLE('',#665,0.699999999999998);
#245=CIRCLE('',#666,0.699999999999998);
#246=CIRCLE('',#668,7.);
#247=CIRCLE('',#669,7.);
#248=CIRCLE('',#681,1.5);
#249=CIRCLE('',#682,1.5);
#250=CIRCLE('',#685,1.5);
#251=CIRCLE('',#686,1.5);
#252=VERTEX_POINT('',#878);
#253=VERTEX_POINT('',#880);
#254=VERTEX_POINT('',#884);
#255=VERTEX_POINT('',#887);
#256=VERTEX_POINT('',#889);
#257=VERTEX_POINT('',#893);
#258=VERTEX_POINT('',#896);
#259=VERTEX_POINT('',#898);
#260=VERTEX_POINT('',#907);
#261=VERTEX_POINT('',#908);
#262=VERTEX_POINT('',#910);
#263=VERTEX_POINT('',#912);
#264=VERTEX_POINT('',#925);
#265=VERTEX_POINT('',#927);
#266=VERTEX_POINT('',#950);
#267=VERTEX_POINT('',#952);
#268=VERTEX_POINT('',#975);
#269=VERTEX_POINT('',#977);
#270=VERTEX_POINT('',#1000);
#271=VERTEX_POINT('',#1002);
#272=VERTEX_POINT('',#1021);
#273=VERTEX_POINT('',#1025);
#274=VERTEX_POINT('',#1027);
#275=VERTEX_POINT('',#1032);
#276=VERTEX_POINT('',#1035);
#277=VERTEX_POINT('',#1039);
#278=VERTEX_POINT('',#1042);
#279=VERTEX_POINT('',#1046);
#280=VERTEX_POINT('',#1049);
#281=VERTEX_POINT('',#1053);
#282=VERTEX_POINT('',#1058);
#283=VERTEX_POINT('',#1060);
#284=VERTEX_POINT('',#1067);
#285=VERTEX_POINT('',#1068);
#286=VERTEX_POINT('',#1070);
#287=VERTEX_POINT('',#1072);
#288=VERTEX_POINT('',#1076);
#289=VERTEX_POINT('',#1078);
#290=VERTEX_POINT('',#1082);
#291=VERTEX_POINT('',#1084);
#292=VERTEX_POINT('',#1088);
#293=VERTEX_POINT('',#1090);
#294=VERTEX_POINT('',#1094);
#295=VERTEX_POINT('',#1096);
#296=VERTEX_POINT('',#1100);
#297=VERTEX_POINT('',#1102);
#298=VERTEX_POINT('',#1106);
#299=VERTEX_POINT('',#1108);
#300=VERTEX_POINT('',#1112);
#301=VERTEX_POINT('',#1114);
#302=VERTEX_POINT('',#1118);
#303=VERTEX_POINT('',#1120);
#304=EDGE_CURVE('',#252,#252,#217,.T.);
#305=EDGE_CURVE('',#252,#253,#143,.T.);
#306=EDGE_CURVE('',#253,#253,#218,.T.);
#307=EDGE_CURVE('',#254,#254,#219,.T.);
#308=EDGE_CURVE('',#255,#255,#220,.T.);
#309=EDGE_CURVE('',#255,#256,#144,.T.);
#310=EDGE_CURVE('',#256,#256,#221,.T.);
#311=EDGE_CURVE('',#257,#257,#222,.T.);
#312=EDGE_CURVE('',#258,#258,#223,.T.);
#313=EDGE_CURVE('',#258,#259,#145,.T.);
#314=EDGE_CURVE('',#259,#259,#224,.T.);
#315=EDGE_CURVE('',#254,#257,#146,.T.);
#316=EDGE_CURVE('',#260,#261,#225,.T.);
#317=EDGE_CURVE('',#261,#262,#226,.T.);
#318=EDGE_CURVE('',#263,#262,#23,.F.);
#319=EDGE_CURVE('',#263,#264,#227,.T.);
#320=EDGE_CURVE('',#265,#264,#24,.F.);
#321=EDGE_CURVE('',#265,#266,#228,.T.);
#322=EDGE_CURVE('',#267,#266,#25,.F.);
#323=EDGE_CURVE('',#267,#268,#229,.T.);
#324=EDGE_CURVE('',#269,#268,#26,.F.);
#325=EDGE_CURVE('',#269,#270,#230,.T.);
#326=EDGE_CURVE('',#271,#270,#27,.F.);
#327=EDGE_CURVE('',#262,#271,#28,.F.);
#328=EDGE_CURVE('',#261,#260,#231,.T.);
#329=EDGE_CURVE('',#272,#272,#232,.T.);
#330=EDGE_CURVE('',#272,#260,#147,.T.);
#331=EDGE_CURVE('',#273,#273,#233,.T.);
#332=EDGE_CURVE('',#273,#274,#148,.T.);
#333=EDGE_CURVE('',#274,#274,#234,.T.);
#334=EDGE_CURVE('',#265,#275,#235,.T.);
#335=EDGE_CURVE('',#275,#264,#236,.T.);
#336=EDGE_CURVE('',#275,#276,#149,.T.);
#337=EDGE_CURVE('',#276,#276,#237,.T.);
#338=EDGE_CURVE('',#267,#277,#238,.T.);
#339=EDGE_CURVE('',#277,#266,#239,.T.);
#340=EDGE_CURVE('',#277,#278,#150,.T.);
#341=EDGE_CURVE('',#278,#278,#240,.T.);
#342=EDGE_CURVE('',#269,#279,#241,.T.);
#343=EDGE_CURVE('',#279,#268,#242,.T.);
#344=EDGE_CURVE('',#279,#280,#151,.T.);
#345=EDGE_CURVE('',#280,#280,#243,.T.);
#346=EDGE_CURVE('',#271,#281,#152,.T.);
#347=EDGE_CURVE('',#281,#281,#244,.T.);
#348=EDGE_CURVE('',#263,#270,#245,.T.);
#349=EDGE_CURVE('',#282,#282,#246,.T.);
#350=EDGE_CURVE('',#282,#283,#153,.T.);
#351=EDGE_CURVE('',#283,#283,#247,.T.);
#352=EDGE_CURVE('',#284,#285,#154,.T.);
#353=EDGE_CURVE('',#285,#286,#155,.T.);
#354=EDGE_CURVE('',#287,#286,#156,.T.);
#355=EDGE_CURVE('',#284,#287,#157,.T.);
#356=EDGE_CURVE('',#288,#284,#158,.T.);
#357=EDGE_CURVE('',#289,#287,#159,.T.);
#358=EDGE_CURVE('',#288,#289,#160,.T.);
#359=EDGE_CURVE('',#290,#288,#161,.T.);
#360=EDGE_CURVE('',#291,#289,#162,.T.);
#361=EDGE_CURVE('',#290,#291,#163,.T.);
#362=EDGE_CURVE('',#292,#290,#164,.T.);
#363=EDGE_CURVE('',#293,#291,#165,.T.);
#364=EDGE_CURVE('',#292,#293,#166,.T.);
#365=EDGE_CURVE('',#294,#292,#167,.T.);
#366=EDGE_CURVE('',#295,#293,#168,.T.);
#367=EDGE_CURVE('',#294,#295,#169,.T.);
#368=EDGE_CURVE('',#296,#294,#170,.T.);
#369=EDGE_CURVE('',#297,#295,#171,.T.);
#370=EDGE_CURVE('',#296,#297,#172,.T.);
#371=EDGE_CURVE('',#298,#296,#173,.T.);
#372=EDGE_CURVE('',#299,#297,#174,.T.);
#373=EDGE_CURVE('',#298,#299,#175,.T.);
#374=EDGE_CURVE('',#300,#298,#248,.T.);
#375=EDGE_CURVE('',#301,#299,#249,.T.);
#376=EDGE_CURVE('',#300,#301,#176,.T.);
#377=EDGE_CURVE('',#300,#302,#177,.T.);
#378=EDGE_CURVE('',#303,#301,#178,.T.);
#379=EDGE_CURVE('',#302,#303,#179,.T.);
#380=EDGE_CURVE('',#285,#302,#250,.T.);
#381=EDGE_CURVE('',#286,#303,#251,.T.);
#382=ORIENTED_EDGE('',*,*,#304,.F.);
#383=ORIENTED_EDGE('',*,*,#305,.T.);
#384=ORIENTED_EDGE('',*,*,#306,.F.);
#385=ORIENTED_EDGE('',*,*,#305,.F.);
#386=ORIENTED_EDGE('',*,*,#307,.T.);
#387=ORIENTED_EDGE('',*,*,#304,.T.);
#388=ORIENTED_EDGE('',*,*,#308,.F.);
#389=ORIENTED_EDGE('',*,*,#309,.T.);
#390=ORIENTED_EDGE('',*,*,#310,.F.);
#391=ORIENTED_EDGE('',*,*,#309,.F.);
#392=ORIENTED_EDGE('',*,*,#311,.T.);
#393=ORIENTED_EDGE('',*,*,#308,.T.);
#394=ORIENTED_EDGE('',*,*,#312,.F.);
#395=ORIENTED_EDGE('',*,*,#313,.T.);
#396=ORIENTED_EDGE('',*,*,#314,.T.);
#397=ORIENTED_EDGE('',*,*,#313,.F.);
#398=ORIENTED_EDGE('',*,*,#307,.F.);
#399=ORIENTED_EDGE('',*,*,#315,.T.);
#400=ORIENTED_EDGE('',*,*,#311,.F.);
#401=ORIENTED_EDGE('',*,*,#315,.F.);
#402=ORIENTED_EDGE('',*,*,#306,.T.);
#403=ORIENTED_EDGE('',*,*,#312,.T.);
#404=ORIENTED_EDGE('',*,*,#310,.T.);
#405=ORIENTED_EDGE('',*,*,#314,.F.);
#406=ORIENTED_EDGE('',*,*,#316,.T.);
#407=ORIENTED_EDGE('',*,*,#317,.T.);
#408=ORIENTED_EDGE('',*,*,#318,.F.);
#409=ORIENTED_EDGE('',*,*,#319,.T.);
#410=ORIENTED_EDGE('',*,*,#320,.F.);
#411=ORIENTED_EDGE('',*,*,#321,.T.);
#412=ORIENTED_EDGE('',*,*,#322,.F.);
#413=ORIENTED_EDGE('',*,*,#323,.T.);
#414=ORIENTED_EDGE('',*,*,#324,.F.);
#415=ORIENTED_EDGE('',*,*,#325,.T.);
#416=ORIENTED_EDGE('',*,*,#326,.F.);
#417=ORIENTED_EDGE('',*,*,#327,.F.);
#418=ORIENTED_EDGE('',*,*,#317,.F.);
#419=ORIENTED_EDGE('',*,*,#328,.T.);
#420=ORIENTED_EDGE('',*,*,#329,.F.);
#421=ORIENTED_EDGE('',*,*,#330,.T.);
#422=ORIENTED_EDGE('',*,*,#328,.F.);
#423=ORIENTED_EDGE('',*,*,#316,.F.);
#424=ORIENTED_EDGE('',*,*,#330,.F.);
#425=ORIENTED_EDGE('',*,*,#331,.F.);
#426=ORIENTED_EDGE('',*,*,#332,.T.);
#427=ORIENTED_EDGE('',*,*,#333,.T.);
#428=ORIENTED_EDGE('',*,*,#332,.F.);
#429=ORIENTED_EDGE('',*,*,#329,.T.);
#430=ORIENTED_EDGE('',*,*,#331,.T.);
#431=ORIENTED_EDGE('',*,*,#334,.F.);
#432=ORIENTED_EDGE('',*,*,#320,.T.);
#433=ORIENTED_EDGE('',*,*,#335,.F.);
#434=ORIENTED_EDGE('',*,*,#336,.T.);
#435=ORIENTED_EDGE('',*,*,#337,.T.);
#436=ORIENTED_EDGE('',*,*,#336,.F.);
#437=ORIENTED_EDGE('',*,*,#338,.F.);
#438=ORIENTED_EDGE('',*,*,#322,.T.);
#439=ORIENTED_EDGE('',*,*,#339,.F.);
#440=ORIENTED_EDGE('',*,*,#340,.T.);
#441=ORIENTED_EDGE('',*,*,#341,.T.);
#442=ORIENTED_EDGE('',*,*,#340,.F.);
#443=ORIENTED_EDGE('',*,*,#342,.F.);
#444=ORIENTED_EDGE('',*,*,#324,.T.);
#445=ORIENTED_EDGE('',*,*,#343,.F.);
#446=ORIENTED_EDGE('',*,*,#344,.T.);
#447=ORIENTED_EDGE('',*,*,#345,.T.);
#448=ORIENTED_EDGE('',*,*,#344,.F.);
#449=ORIENTED_EDGE('',*,*,#318,.T.);
#450=ORIENTED_EDGE('',*,*,#327,.T.);
#451=ORIENTED_EDGE('',*,*,#346,.T.);
#452=ORIENTED_EDGE('',*,*,#347,.T.);
#453=ORIENTED_EDGE('',*,*,#346,.F.);
#454=ORIENTED_EDGE('',*,*,#326,.T.);
#455=ORIENTED_EDGE('',*,*,#348,.F.);
#456=ORIENTED_EDGE('',*,*,#349,.F.);
#457=ORIENTED_EDGE('',*,*,#350,.T.);
#458=ORIENTED_EDGE('',*,*,#351,.T.);
#459=ORIENTED_EDGE('',*,*,#350,.F.);
#460=ORIENTED_EDGE('',*,*,#349,.T.);
#461=ORIENTED_EDGE('',*,*,#319,.F.);
#462=ORIENTED_EDGE('',*,*,#348,.T.);
#463=ORIENTED_EDGE('',*,*,#325,.F.);
#464=ORIENTED_EDGE('',*,*,#342,.T.);
#465=ORIENTED_EDGE('',*,*,#343,.T.);
#466=ORIENTED_EDGE('',*,*,#323,.F.);
#467=ORIENTED_EDGE('',*,*,#338,.T.);
#468=ORIENTED_EDGE('',*,*,#339,.T.);
#469=ORIENTED_EDGE('',*,*,#321,.F.);
#470=ORIENTED_EDGE('',*,*,#334,.T.);
#471=ORIENTED_EDGE('',*,*,#335,.T.);
#472=ORIENTED_EDGE('',*,*,#351,.F.);
#473=ORIENTED_EDGE('',*,*,#333,.F.);
#474=ORIENTED_EDGE('',*,*,#347,.F.);
#475=ORIENTED_EDGE('',*,*,#345,.F.);
#476=ORIENTED_EDGE('',*,*,#341,.F.);
#477=ORIENTED_EDGE('',*,*,#337,.F.);
#478=ORIENTED_EDGE('',*,*,#352,.T.);
#479=ORIENTED_EDGE('',*,*,#353,.T.);
#480=ORIENTED_EDGE('',*,*,#354,.F.);
#481=ORIENTED_EDGE('',*,*,#355,.F.);
#482=ORIENTED_EDGE('',*,*,#356,.T.);
#483=ORIENTED_EDGE('',*,*,#355,.T.);
#484=ORIENTED_EDGE('',*,*,#357,.F.);
#485=ORIENTED_EDGE('',*,*,#358,.F.);
#486=ORIENTED_EDGE('',*,*,#359,.T.);
#487=ORIENTED_EDGE('',*,*,#358,.T.);
#488=ORIENTED_EDGE('',*,*,#360,.F.);
#489=ORIENTED_EDGE('',*,*,#361,.F.);
#490=ORIENTED_EDGE('',*,*,#362,.T.);
#491=ORIENTED_EDGE('',*,*,#361,.T.);
#492=ORIENTED_EDGE('',*,*,#363,.F.);
#493=ORIENTED_EDGE('',*,*,#364,.F.);
#494=ORIENTED_EDGE('',*,*,#365,.T.);
#495=ORIENTED_EDGE('',*,*,#364,.T.);
#496=ORIENTED_EDGE('',*,*,#366,.F.);
#497=ORIENTED_EDGE('',*,*,#367,.F.);
#498=ORIENTED_EDGE('',*,*,#368,.T.);
#499=ORIENTED_EDGE('',*,*,#367,.T.);
#500=ORIENTED_EDGE('',*,*,#369,.F.);
#501=ORIENTED_EDGE('',*,*,#370,.F.);
#502=ORIENTED_EDGE('',*,*,#371,.T.);
#503=ORIENTED_EDGE('',*,*,#370,.T.);
#504=ORIENTED_EDGE('',*,*,#372,.F.);
#505=ORIENTED_EDGE('',*,*,#373,.F.);
#506=ORIENTED_EDGE('',*,*,#374,.T.);
#507=ORIENTED_EDGE('',*,*,#373,.T.);
#508=ORIENTED_EDGE('',*,*,#375,.F.);
#509=ORIENTED_EDGE('',*,*,#376,.F.);
#510=ORIENTED_EDGE('',*,*,#377,.F.);
#511=ORIENTED_EDGE('',*,*,#376,.T.);
#512=ORIENTED_EDGE('',*,*,#378,.F.);
#513=ORIENTED_EDGE('',*,*,#379,.F.);
#514=ORIENTED_EDGE('',*,*,#380,.T.);
#515=ORIENTED_EDGE('',*,*,#379,.T.);
#516=ORIENTED_EDGE('',*,*,#381,.F.);
#517=ORIENTED_EDGE('',*,*,#353,.F.);
#518=ORIENTED_EDGE('',*,*,#381,.T.);
#519=ORIENTED_EDGE('',*,*,#378,.T.);
#520=ORIENTED_EDGE('',*,*,#375,.T.);
#521=ORIENTED_EDGE('',*,*,#372,.T.);
#522=ORIENTED_EDGE('',*,*,#369,.T.);
#523=ORIENTED_EDGE('',*,*,#366,.T.);
#524=ORIENTED_EDGE('',*,*,#363,.T.);
#525=ORIENTED_EDGE('',*,*,#360,.T.);
#526=ORIENTED_EDGE('',*,*,#357,.T.);
#527=ORIENTED_EDGE('',*,*,#354,.T.);
#528=ORIENTED_EDGE('',*,*,#380,.F.);
#529=ORIENTED_EDGE('',*,*,#352,.F.);
#530=ORIENTED_EDGE('',*,*,#356,.F.);
#531=ORIENTED_EDGE('',*,*,#359,.F.);
#532=ORIENTED_EDGE('',*,*,#362,.F.);
#533=ORIENTED_EDGE('',*,*,#365,.F.);
#534=ORIENTED_EDGE('',*,*,#368,.F.);
#535=ORIENTED_EDGE('',*,*,#371,.F.);
#536=ORIENTED_EDGE('',*,*,#374,.F.);
#537=ORIENTED_EDGE('',*,*,#377,.T.);
#538=CYLINDRICAL_SURFACE('',#621,4.8);
#539=CYLINDRICAL_SURFACE('',#626,2.5);
#540=CYLINDRICAL_SURFACE('',#631,0.950000000000006);
#541=CYLINDRICAL_SURFACE('',#634,6.);
#542=CYLINDRICAL_SURFACE('',#646,3.8);
#543=CYLINDRICAL_SURFACE('',#648,2.6);
#544=CYLINDRICAL_SURFACE('',#652,0.700000000000003);
#545=CYLINDRICAL_SURFACE('',#656,0.700000000000003);
#546=CYLINDRICAL_SURFACE('',#660,0.700000000000003);
#547=CYLINDRICAL_SURFACE('',#664,0.699999999999998);
#548=CYLINDRICAL_SURFACE('',#667,7.);
#549=CYLINDRICAL_SURFACE('',#680,1.5);
#550=CYLINDRICAL_SURFACE('',#684,1.5);
#551=ADVANCED_FACE('',(#70),#538,.F.);
#552=ADVANCED_FACE('',(#71,#42),#53,.T.);
#553=ADVANCED_FACE('',(#72),#539,.F.);
#554=ADVANCED_FACE('',(#73,#43),#54,.F.);
#555=ADVANCED_FACE('',(#74),#540,.F.);
#556=ADVANCED_FACE('',(#75),#541,.T.);
#557=ADVANCED_FACE('',(#76,#44),#55,.T.);
#558=ADVANCED_FACE('',(#77,#45),#56,.F.);
#559=ADVANCED_FACE('',(#78),#29,.F.);
#560=ADVANCED_FACE('',(#79),#542,.T.);
#561=ADVANCED_FACE('',(#80),#543,.F.);
#562=ADVANCED_FACE('',(#81,#46),#57,.T.);
#563=ADVANCED_FACE('',(#82),#544,.F.);
#564=ADVANCED_FACE('',(#83),#545,.F.);
#565=ADVANCED_FACE('',(#84),#546,.F.);
#566=ADVANCED_FACE('',(#85),#547,.F.);
#567=ADVANCED_FACE('',(#86),#548,.T.);
#568=ADVANCED_FACE('',(#87,#47),#58,.T.);
#569=ADVANCED_FACE('',(#88,#48,#49,#50,#51,#52),#59,.F.);
#570=ADVANCED_FACE('',(#89),#60,.T.);
#571=ADVANCED_FACE('',(#90),#61,.T.);
#572=ADVANCED_FACE('',(#91),#62,.T.);
#573=ADVANCED_FACE('',(#92),#63,.T.);
#574=ADVANCED_FACE('',(#93),#64,.T.);
#575=ADVANCED_FACE('',(#94),#65,.T.);
#576=ADVANCED_FACE('',(#95),#66,.T.);
#577=ADVANCED_FACE('',(#96),#549,.F.);
#578=ADVANCED_FACE('',(#97),#67,.T.);
#579=ADVANCED_FACE('',(#98),#550,.F.);
#580=ADVANCED_FACE('',(#99),#68,.T.);
#581=ADVANCED_FACE('',(#100),#69,.F.);
#582=CLOSED_SHELL('',(#551,#552,#553,#554,#555,#556,#557,#558));
#583=CLOSED_SHELL('',(#559,#560,#561,#562,#563,#564,#565,#566,#567,#568,
#569));
#584=CLOSED_SHELL('',(#570,#571,#572,#573,#574,#575,#576,#577,#578,#579,
#580,#581));
#585=DERIVED_UNIT_ELEMENT(#591,1.);
#586=DERIVED_UNIT_ELEMENT(#1142,-3.);
#587=DERIVED_UNIT_ELEMENT(#591,1.);
#588=DERIVED_UNIT_ELEMENT(#1142,-3.);
#589=DERIVED_UNIT_ELEMENT(#591,1.);
#590=DERIVED_UNIT_ELEMENT(#1142,-3.);
#591=(
MASS_UNIT()
NAMED_UNIT(*)
SI_UNIT(.KILO.,.GRAM.)
);
#592=DERIVED_UNIT((#585,#586));
#593=DERIVED_UNIT((#587,#588));
#594=DERIVED_UNIT((#589,#590));
#595=MEASURE_REPRESENTATION_ITEM('density measure',
POSITIVE_RATIO_MEASURE(7850.),#592);
#596=MEASURE_REPRESENTATION_ITEM('density measure',
POSITIVE_RATIO_MEASURE(7850.),#593);
#597=MEASURE_REPRESENTATION_ITEM('density measure',
POSITIVE_RATIO_MEASURE(7850.),#594);
#598=PROPERTY_DEFINITION_REPRESENTATION(#613,#604);
#599=PROPERTY_DEFINITION_REPRESENTATION(#614,#605);
#600=PROPERTY_DEFINITION_REPRESENTATION(#615,#606);
#601=PROPERTY_DEFINITION_REPRESENTATION(#616,#607);
#602=PROPERTY_DEFINITION_REPRESENTATION(#617,#608);
#603=PROPERTY_DEFINITION_REPRESENTATION(#618,#609);
#604=REPRESENTATION('material name',(#610),#1137);
#605=REPRESENTATION('density',(#595),#1137);
#606=REPRESENTATION('material name',(#611),#1138);
#607=REPRESENTATION('density',(#596),#1138);
#608=REPRESENTATION('material name',(#612),#1139);
#609=REPRESENTATION('density',(#597),#1139);
#610=DESCRIPTIVE_REPRESENTATION_ITEM('Steel','Steel');
#611=DESCRIPTIVE_REPRESENTATION_ITEM('Steel','Steel');
#612=DESCRIPTIVE_REPRESENTATION_ITEM('Steel','Steel');
#613=PROPERTY_DEFINITION('material property','material name',#1162);
#614=PROPERTY_DEFINITION('material property','density of part',#1162);
#615=PROPERTY_DEFINITION('material property','material name',#1163);
#616=PROPERTY_DEFINITION('material property','density of part',#1163);
#617=PROPERTY_DEFINITION('material property','material name',#1164);
#618=PROPERTY_DEFINITION('material property','density of part',#1164);
#619=AXIS2_PLACEMENT_3D('',#875,#692,#693);
#620=AXIS2_PLACEMENT_3D('',#876,#694,#695);
#621=AXIS2_PLACEMENT_3D('',#877,#696,#697);
#622=AXIS2_PLACEMENT_3D('',#879,#698,#699);
#623=AXIS2_PLACEMENT_3D('',#882,#701,#702);
#624=AXIS2_PLACEMENT_3D('',#883,#703,#704);
#625=AXIS2_PLACEMENT_3D('',#885,#705,#706);
#626=AXIS2_PLACEMENT_3D('',#886,#707,#708);
#627=AXIS2_PLACEMENT_3D('',#888,#709,#710);
#628=AXIS2_PLACEMENT_3D('',#891,#712,#713);
#629=AXIS2_PLACEMENT_3D('',#892,#714,#715);
#630=AXIS2_PLACEMENT_3D('',#894,#716,#717);
#631=AXIS2_PLACEMENT_3D('',#895,#718,#719);
#632=AXIS2_PLACEMENT_3D('',#897,#720,#721);
#633=AXIS2_PLACEMENT_3D('',#900,#723,#724);
#634=AXIS2_PLACEMENT_3D('',#901,#725,#726);
#635=AXIS2_PLACEMENT_3D('',#903,#728,#729);
#636=AXIS2_PLACEMENT_3D('',#904,#730,#731);
#637=AXIS2_PLACEMENT_3D('',#905,#732,#733);
#638=AXIS2_PLACEMENT_3D('',#906,#734,#735);
#639=AXIS2_PLACEMENT_3D('',#909,#736,#737);
#640=AXIS2_PLACEMENT_3D('',#911,#738,#739);
#641=AXIS2_PLACEMENT_3D('',#926,#740,#741);
#642=AXIS2_PLACEMENT_3D('',#951,#742,#743);
#643=AXIS2_PLACEMENT_3D('',#976,#744,#745);
#644=AXIS2_PLACEMENT_3D('',#1001,#746,#747);
#645=AXIS2_PLACEMENT_3D('',#1019,#748,#749);
#646=AXIS2_PLACEMENT_3D('',#1020,#750,#751);
#647=AXIS2_PLACEMENT_3D('',#1022,#752,#753);
#648=AXIS2_PLACEMENT_3D('',#1024,#755,#756);
#649=AXIS2_PLACEMENT_3D('',#1026,#757,#758);
#650=AXIS2_PLACEMENT_3D('',#1029,#760,#761);
#651=AXIS2_PLACEMENT_3D('',#1030,#762,#763);
#652=AXIS2_PLACEMENT_3D('',#1031,#764,#765);
#653=AXIS2_PLACEMENT_3D('',#1033,#766,#767);
#654=AXIS2_PLACEMENT_3D('',#1034,#768,#769);
#655=AXIS2_PLACEMENT_3D('',#1037,#771,#772);
#656=AXIS2_PLACEMENT_3D('',#1038,#773,#774);
#657=AXIS2_PLACEMENT_3D('',#1040,#775,#776);
#658=AXIS2_PLACEMENT_3D('',#1041,#777,#778);
#659=AXIS2_PLACEMENT_3D('',#1044,#780,#781);
#660=AXIS2_PLACEMENT_3D('',#1045,#782,#783);
#661=AXIS2_PLACEMENT_3D('',#1047,#784,#785);
#662=AXIS2_PLACEMENT_3D('',#1048,#786,#787);
#663=AXIS2_PLACEMENT_3D('',#1051,#789,#790);
#664=AXIS2_PLACEMENT_3D('',#1052,#791,#792);
#665=AXIS2_PLACEMENT_3D('',#1055,#794,#795);
#666=AXIS2_PLACEMENT_3D('',#1056,#796,#797);
#667=AXIS2_PLACEMENT_3D('',#1057,#798,#799);
#668=AXIS2_PLACEMENT_3D('',#1059,#800,#801);
#669=AXIS2_PLACEMENT_3D('',#1062,#803,#804);
#670=AXIS2_PLACEMENT_3D('',#1063,#805,#806);
#671=AXIS2_PLACEMENT_3D('',#1064,#807,#808);
#672=AXIS2_PLACEMENT_3D('',#1065,#809,#810);
#673=AXIS2_PLACEMENT_3D('',#1066,#811,#812);
#674=AXIS2_PLACEMENT_3D('',#1075,#817,#818);
#675=AXIS2_PLACEMENT_3D('',#1081,#822,#823);
#676=AXIS2_PLACEMENT_3D('',#1087,#827,#828);
#677=AXIS2_PLACEMENT_3D('',#1093,#832,#833);
#678=AXIS2_PLACEMENT_3D('',#1099,#837,#838);
#679=AXIS2_PLACEMENT_3D('',#1105,#842,#843);
#680=AXIS2_PLACEMENT_3D('',#1111,#847,#848);
#681=AXIS2_PLACEMENT_3D('',#1113,#849,#850);
#682=AXIS2_PLACEMENT_3D('',#1115,#851,#852);
#683=AXIS2_PLACEMENT_3D('',#1117,#854,#855);
#684=AXIS2_PLACEMENT_3D('',#1123,#859,#860);
#685=AXIS2_PLACEMENT_3D('',#1124,#861,#862);
#686=AXIS2_PLACEMENT_3D('',#1125,#863,#864);
#687=AXIS2_PLACEMENT_3D('',#1126,#865,#866);
#688=AXIS2_PLACEMENT_3D('',#1127,#867,#868);
#689=AXIS2_PLACEMENT_3D('',#1128,#869,#870);
#690=AXIS2_PLACEMENT_3D('',#1129,#871,#872);
#691=AXIS2_PLACEMENT_3D('',#1130,#873,#874);
#692=DIRECTION('axis',(0.,0.,1.));
#693=DIRECTION('refdir',(1.,0.,0.));
#694=DIRECTION('axis',(0.,0.,1.));
#695=DIRECTION('refdir',(1.,0.,0.));
#696=DIRECTION('center_axis',(0.,0.,1.));
#697=DIRECTION('ref_axis',(1.,0.,0.));
#698=DIRECTION('center_axis',(0.,0.,-1.));
#699=DIRECTION('ref_axis',(1.,0.,0.));
#700=DIRECTION('',(0.,0.,-1.));
#701=DIRECTION('center_axis',(0.,0.,1.));
#702=DIRECTION('ref_axis',(1.,0.,0.));
#703=DIRECTION('center_axis',(0.,0.,1.));
#704=DIRECTION('ref_axis',(1.,0.,0.));
#705=DIRECTION('center_axis',(0.,0.,1.));
#706=DIRECTION('ref_axis',(1.,0.,0.));
#707=DIRECTION('center_axis',(0.,0.,-1.));
#708=DIRECTION('ref_axis',(1.,0.,0.));
#709=DIRECTION('center_axis',(0.,0.,1.));
#710=DIRECTION('ref_axis',(1.,0.,0.));
#711=DIRECTION('',(0.,0.,1.));
#712=DIRECTION('center_axis',(0.,0.,-1.));
#713=DIRECTION('ref_axis',(1.,0.,0.));
#714=DIRECTION('center_axis',(0.,0.,1.));
#715=DIRECTION('ref_axis',(1.,0.,0.));
#716=DIRECTION('center_axis',(0.,0.,-1.));
#717=DIRECTION('ref_axis',(1.,0.,0.));
#718=DIRECTION('center_axis',(0.,0.,1.));
#719=DIRECTION('ref_axis',(1.,0.,0.));
#720=DIRECTION('center_axis',(0.,0.,-1.));
#721=DIRECTION('ref_axis',(1.,0.,0.));
#722=DIRECTION('',(0.,0.,-1.));
#723=DIRECTION('center_axis',(0.,0.,-1.));
#724=DIRECTION('ref_axis',(1.,0.,0.));
#725=DIRECTION('center_axis',(0.,0.,1.));
#726=DIRECTION('ref_axis',(1.,0.,0.));
#727=DIRECTION('',(0.,0.,-1.));
#728=DIRECTION('center_axis',(0.,0.,1.));
#729=DIRECTION('ref_axis',(1.,0.,0.));
#730=DIRECTION('center_axis',(0.,0.,1.));
#731=DIRECTION('ref_axis',(1.,0.,0.));
#732=DIRECTION('axis',(0.,0.,1.));
#733=DIRECTION('refdir',(1.,0.,0.));
#734=DIRECTION('center_axis',(0.,0.,-1.));
#735=DIRECTION('ref_axis',(-1.,0.,0.));
#736=DIRECTION('center_axis',(0.,0.,-1.));
#737=DIRECTION('ref_axis',(1.,0.,0.));
#738=DIRECTION('center_axis',(0.,-1.,0.));
#739=DIRECTION('ref_axis',(1.,0.,0.));
#740=DIRECTION('center_axis',(0.,0.,1.));
#741=DIRECTION('ref_axis',(1.,0.,0.));
#742=DIRECTION('center_axis',(0.,0.,1.));
#743=DIRECTION('ref_axis',(1.,0.,0.));
#744=DIRECTION('center_axis',(0.,0.,1.));
#745=DIRECTION('ref_axis',(1.,0.,0.));
#746=DIRECTION('center_axis',(0.,0.,1.));
#747=DIRECTION('ref_axis',(1.,0.,0.));
#748=DIRECTION('center_axis',(0.,0.,-1.));
#749=DIRECTION('ref_axis',(1.,0.,0.));
#750=DIRECTION('center_axis',(0.,0.,1.));
#751=DIRECTION('ref_axis',(1.,0.,0.));
#752=DIRECTION('center_axis',(0.,0.,1.));
#753=DIRECTION('ref_axis',(1.,0.,0.));
#754=DIRECTION('',(0.,0.,-1.));
#755=DIRECTION('center_axis',(0.,0.,1.));
#756=DIRECTION('ref_axis',(1.,0.,0.));
#757=DIRECTION('center_axis',(0.,0.,-1.));
#758=DIRECTION('ref_axis',(1.,0.,0.));
#759=DIRECTION('',(0.,0.,-1.));
#760=DIRECTION('center_axis',(0.,0.,-1.));
#761=DIRECTION('ref_axis',(1.,0.,0.));
#762=DIRECTION('center_axis',(0.,0.,1.));
#763=DIRECTION('ref_axis',(1.,0.,0.));
#764=DIRECTION('center_axis',(0.,0.,1.));
#765=DIRECTION('ref_axis',(1.,0.,0.));
#766=DIRECTION('center_axis',(0.,0.,-1.));
#767=DIRECTION('ref_axis',(1.,0.,0.));
#768=DIRECTION('center_axis',(0.,0.,-1.));
#769=DIRECTION('ref_axis',(1.,0.,0.));
#770=DIRECTION('',(0.,0.,-1.));
#771=DIRECTION('center_axis',(0.,0.,-1.));
#772=DIRECTION('ref_axis',(1.,0.,0.));
#773=DIRECTION('center_axis',(0.,0.,1.));
#774=DIRECTION('ref_axis',(1.,0.,0.));
#775=DIRECTION('center_axis',(0.,0.,-1.));
#776=DIRECTION('ref_axis',(1.,0.,0.));
#777=DIRECTION('center_axis',(0.,0.,-1.));
#778=DIRECTION('ref_axis',(1.,0.,0.));
#779=DIRECTION('',(0.,0.,-1.));
#780=DIRECTION('center_axis',(0.,0.,-1.));
#781=DIRECTION('ref_axis',(1.,0.,0.));
#782=DIRECTION('center_axis',(0.,0.,1.));
#783=DIRECTION('ref_axis',(1.,0.,0.));
#784=DIRECTION('center_axis',(0.,0.,-1.));
#785=DIRECTION('ref_axis',(1.,0.,0.));
#786=DIRECTION('center_axis',(0.,0.,-1.));
#787=DIRECTION('ref_axis',(1.,0.,0.));
#788=DIRECTION('',(0.,0.,-1.));
#789=DIRECTION('center_axis',(0.,0.,-1.));
#790=DIRECTION('ref_axis',(1.,0.,0.));
#791=DIRECTION('center_axis',(0.,0.,1.));
#792=DIRECTION('ref_axis',(1.,0.,0.));
#793=DIRECTION('',(0.,0.,-1.));
#794=DIRECTION('center_axis',(0.,0.,-1.));
#795=DIRECTION('ref_axis',(1.,0.,0.));
#796=DIRECTION('center_axis',(0.,0.,-1.));
#797=DIRECTION('ref_axis',(1.,0.,0.));
#798=DIRECTION('center_axis',(0.,0.,1.));
#799=DIRECTION('ref_axis',(1.,0.,0.));
#800=DIRECTION('center_axis',(0.,0.,1.));
#801=DIRECTION('ref_axis',(1.,0.,0.));
#802=DIRECTION('',(0.,0.,-1.));
#803=DIRECTION('center_axis',(0.,0.,1.));
#804=DIRECTION('ref_axis',(1.,0.,0.));
#805=DIRECTION('center_axis',(0.,0.,1.));
#806=DIRECTION('ref_axis',(1.,0.,0.));
#807=DIRECTION('center_axis',(0.,0.,1.));
#808=DIRECTION('ref_axis',(1.,0.,0.));
#809=DIRECTION('axis',(0.,0.,1.));
#810=DIRECTION('refdir',(1.,0.,0.));
#811=DIRECTION('center_axis',(1.,0.,0.));
#812=DIRECTION('ref_axis',(0.,1.,0.));
#813=DIRECTION('',(0.,1.,0.));
#814=DIRECTION('',(0.,0.,1.));
#815=DIRECTION('',(0.,1.,0.));
#816=DIRECTION('',(0.,0.,1.));
#817=DIRECTION('center_axis',(0.554700196225226,-0.832050294337846,0.));
#818=DIRECTION('ref_axis',(0.832050294337846,0.554700196225226,0.));
#819=DIRECTION('',(0.832050294337846,0.554700196225226,0.));
#820=DIRECTION('',(0.832050294337846,0.554700196225226,0.));
#821=DIRECTION('',(0.,0.,1.));
#822=DIRECTION('center_axis',(-0.44721359549996,-0.894427190999915,0.));
#823=DIRECTION('ref_axis',(0.894427190999915,-0.44721359549996,0.));
#824=DIRECTION('',(0.894427190999915,-0.44721359549996,0.));
#825=DIRECTION('',(0.894427190999915,-0.44721359549996,0.));
#826=DIRECTION('',(0.,0.,1.));
#827=DIRECTION('center_axis',(0.,-1.,0.));
#828=DIRECTION('ref_axis',(1.,0.,0.));
#829=DIRECTION('',(1.,0.,0.));
#830=DIRECTION('',(1.,0.,0.));
#831=DIRECTION('',(0.,0.,1.));
#832=DIRECTION('center_axis',(0.447213595499956,-0.894427190999917,0.));
#833=DIRECTION('ref_axis',(0.894427190999917,0.447213595499956,0.));
#834=DIRECTION('',(0.894427190999917,0.447213595499956,0.));
#835=DIRECTION('',(0.894427190999917,0.447213595499956,0.));
#836=DIRECTION('',(0.,0.,1.));
#837=DIRECTION('center_axis',(-0.554700196225217,-0.832050294337852,0.));
#838=DIRECTION('ref_axis',(0.832050294337852,-0.554700196225217,0.));
#839=DIRECTION('',(0.832050294337852,-0.554700196225217,0.));
#840=DIRECTION('',(0.832050294337852,-0.554700196225217,0.));
#841=DIRECTION('',(0.,0.,1.));
#842=DIRECTION('center_axis',(-1.,2.46716227694479E-15,0.));
#843=DIRECTION('ref_axis',(-2.46716227694479E-15,-1.,0.));
#844=DIRECTION('',(-2.46716227694479E-15,-1.,0.));
#845=DIRECTION('',(-2.46716227694479E-15,-1.,0.));
#846=DIRECTION('',(0.,0.,1.));
#847=DIRECTION('center_axis',(0.,0.,1.));
#848=DIRECTION('ref_axis',(1.,0.,0.));
#849=DIRECTION('center_axis',(0.,0.,-1.));
#850=DIRECTION('ref_axis',(1.,0.,0.));
#851=DIRECTION('center_axis',(0.,0.,-1.));
#852=DIRECTION('ref_axis',(1.,0.,0.));
#853=DIRECTION('',(0.,0.,1.));
#854=DIRECTION('center_axis',(0.,1.,0.));
#855=DIRECTION('ref_axis',(-1.,0.,0.));
#856=DIRECTION('',(1.,0.,0.));
#857=DIRECTION('',(-1.,0.,0.));
#858=DIRECTION('',(0.,0.,1.));
#859=DIRECTION('center_axis',(0.,0.,1.));
#860=DIRECTION('ref_axis',(-0.707106781186548,-0.707106781186547,0.));
#861=DIRECTION('center_axis',(0.,0.,-1.));
#862=DIRECTION('ref_axis',(1.,0.,0.));
#863=DIRECTION('center_axis',(0.,0.,-1.));
#864=DIRECTION('ref_axis',(1.,0.,0.));
#865=DIRECTION('center_axis',(0.,0.,1.));
#866=DIRECTION('ref_axis',(1.,0.,0.));
#867=DIRECTION('center_axis',(0.,0.,1.));
#868=DIRECTION('ref_axis',(1.,0.,0.));
#869=DIRECTION('',(0.,0.,1.));
#870=DIRECTION('',(1.,0.,0.));
#871=DIRECTION('',(0.,0.,1.));
#872=DIRECTION('',(1.,0.,0.));
#873=DIRECTION('',(0.,0.,1.));
#874=DIRECTION('',(1.,0.,0.));
#875=CARTESIAN_POINT('',(0.,0.,0.));
#876=CARTESIAN_POINT('',(0.,0.,0.));
#877=CARTESIAN_POINT('Origin',(-55.0000008195639,-30.0000004470348,0.));
#878=CARTESIAN_POINT('',(-59.8000008195639,-30.0000004470348,15.));
#879=CARTESIAN_POINT('Origin',(-55.0000008195639,-30.0000004470348,15.));
#880=CARTESIAN_POINT('',(-59.8000008195639,-30.0000004470348,2.));
#881=CARTESIAN_POINT('',(-59.8000008195639,-30.0000004470348,0.));
#882=CARTESIAN_POINT('Origin',(-55.0000008195639,-30.0000004470348,2.));
#883=CARTESIAN_POINT('Origin',(-55.0000008195639,-30.0000004470348,15.));
#884=CARTESIAN_POINT('',(-61.0000008195639,-30.0000004470348,15.));
#885=CARTESIAN_POINT('Origin',(-55.0000008195639,-30.0000004470348,15.));
#886=CARTESIAN_POINT('Origin',(-55.0000008195639,-30.0000004470348,0.));
#887=CARTESIAN_POINT('',(-57.5000008195639,-30.0000004470348,-4.));
#888=CARTESIAN_POINT('Origin',(-55.0000008195639,-30.0000004470348,-4.));
#889=CARTESIAN_POINT('',(-57.5000008195639,-30.0000004470348,0.));
#890=CARTESIAN_POINT('',(-57.5000008195639,-30.0000004470348,0.));
#891=CARTESIAN_POINT('Origin',(-55.0000008195639,-30.0000004470348,0.));
#892=CARTESIAN_POINT('Origin',(-55.0000008195639,-30.0000004470348,-4.));
#893=CARTESIAN_POINT('',(-61.0000008195639,-30.0000004470348,-4.));
#894=CARTESIAN_POINT('Origin',(-55.0000008195639,-30.0000004470348,-4.));
#895=CARTESIAN_POINT('Origin',(-55.0000008195639,-30.0000004470348,0.));
#896=CARTESIAN_POINT('',(-55.9500008195639,-30.0000004470348,2.));
#897=CARTESIAN_POINT('Origin',(-55.0000008195639,-30.0000004470348,2.));
#898=CARTESIAN_POINT('',(-55.9500008195639,-30.0000004470348,0.));
#899=CARTESIAN_POINT('',(-55.9500008195639,-30.0000004470348,0.));
#900=CARTESIAN_POINT('Origin',(-55.0000008195639,-30.0000004470348,0.));
#901=CARTESIAN_POINT('Origin',(-55.0000008195639,-30.0000004470348,0.));
#902=CARTESIAN_POINT('',(-61.0000008195639,-30.0000004470348,0.));
#903=CARTESIAN_POINT('Origin',(-55.0000008195639,-30.0000004470348,2.));
#904=CARTESIAN_POINT('Origin',(-55.0000008195639,-30.0000004470348,0.));
#905=CARTESIAN_POINT('',(0.,0.,0.));
#906=CARTESIAN_POINT('Origin',(-45.0000006705523,-70.0000010430813,2.2));
#907=CARTESIAN_POINT('',(-48.8000006705523,-70.0000010430813,2.2));
#908=CARTESIAN_POINT('',(-41.2000006705523,-70.0000010430813,2.2));
#909=CARTESIAN_POINT('Origin',(-45.0000006705523,-70.0000010430813,2.2));
#910=CARTESIAN_POINT('',(-40.4998154954905,-70.0000010432596,1.2460025834693));
#911=CARTESIAN_POINT('Origin',(-40.2000006705523,-70.0000010430813,2.2));
#912=CARTESIAN_POINT('',(-40.2299239890778,-69.4648669917879,1.2));
#913=CARTESIAN_POINT('Ctrl Pts',(-40.4998154954905,-70.0000010434379,1.2460025834693));
#914=CARTESIAN_POINT('Ctrl Pts',(-40.4996867401758,-69.9947948774943,1.24596211925908));
#915=CARTESIAN_POINT('Ctrl Pts',(-40.4995000957225,-69.9895984791999,1.245900643663));
#916=CARTESIAN_POINT('Ctrl Pts',(-40.4982597743087,-69.9632340086609,1.24548304897468));
#917=CARTESIAN_POINT('Ctrl Pts',(-40.4963091008992,-69.9422520078542,1.24480167831208));
#918=CARTESIAN_POINT('Ctrl Pts',(-40.4881669213484,-69.883319782273,1.24199490374246));
#919=CARTESIAN_POINT('Ctrl Pts',(-40.4797940511643,-69.8459522428549,1.23912831241767));
#920=CARTESIAN_POINT('Ctrl Pts',(-40.4451773494118,-69.7344966576095,1.22835824308612));
#921=CARTESIAN_POINT('Ctrl Pts',(-40.4094522423031,-69.6642750590905,1.21834054297932));
#922=CARTESIAN_POINT('Ctrl Pts',(-40.3252139119497,-69.5500688498428,1.20448325135615));
#923=CARTESIAN_POINT('Ctrl Pts',(-40.2802863707809,-69.5040576464349,1.2));
#924=CARTESIAN_POINT('Ctrl Pts',(-40.2299239890778,-69.4648669917879,1.2));
#925=CARTESIAN_POINT('',(-44.4331271359219,-65.2335920807979,1.2));
#926=CARTESIAN_POINT('Origin',(-45.0000006705523,-70.0000010430813,1.2));
#927=CARTESIAN_POINT('',(-45.5351347218457,-65.2299243616068,1.2));
#928=CARTESIAN_POINT('Ctrl Pts',(-44.4331271359211,-65.2335920807968,1.2));
#929=CARTESIAN_POINT('Ctrl Pts',(-44.437950464275,-65.2397059473143,1.19999999999999));
#930=CARTESIAN_POINT('Ctrl Pts',(-44.4428810772473,-65.2457460027748,1.20006616071442));
#931=CARTESIAN_POINT('Ctrl Pts',(-44.5056798399699,-65.3200979793649,1.20166598336661));
#932=CARTESIAN_POINT('Ctrl Pts',(-44.5754639348632,-65.3761317115421,1.21127156027871));
#933=CARTESIAN_POINT('Ctrl Pts',(-44.7116126066718,-65.448818070494,1.22855393494774));
#934=CARTESIAN_POINT('Ctrl Pts',(-44.7742076838475,-65.4715206102765,1.23598097405538));
#935=CARTESIAN_POINT('Ctrl Pts',(-44.8662507867829,-65.490843366381,1.24262742419174));
#936=CARTESIAN_POINT('Ctrl Pts',(-44.8938010117119,-65.4949156860581,1.24411206499091));
#937=CARTESIAN_POINT('Ctrl Pts',(-44.9400336656148,-65.4989786982778,1.24562462793652));
#938=CARTESIAN_POINT('Ctrl Pts',(-44.9586053334887,-65.4998596719522,1.24596843094431));
#939=CARTESIAN_POINT('Ctrl Pts',(-44.9948862702641,-65.5001496469311,1.24611766002893));
#940=CARTESIAN_POINT('Ctrl Pts',(-45.0125629443089,-65.4996133461662,1.24594319875006));
#941=CARTESIAN_POINT('Ctrl Pts',(-45.0537325159767,-65.4968183697005,1.24498358415727));
#942=CARTESIAN_POINT('Ctrl Pts',(-45.0770978829199,-65.4940288751642,1.24400723246802));
#943=CARTESIAN_POINT('Ctrl Pts',(-45.1490025277767,-65.4817902919333,1.23983175030023));
#944=CARTESIAN_POINT('Ctrl Pts',(-45.1964014830651,-65.4683912147964,1.23534397175086));
#945=CARTESIAN_POINT('Ctrl Pts',(-45.3282026845211,-65.415897365984,1.22040007092705));
#946=CARTESIAN_POINT('Ctrl Pts',(-45.4065498851986,-65.3647174205588,1.20835613584214));
#947=CARTESIAN_POINT('Ctrl Pts',(-45.4950576115379,-65.2780250116266,1.20106713478197));
#948=CARTESIAN_POINT('Ctrl Pts',(-45.5159558059015,-65.2545704384363,1.2));
#949=CARTESIAN_POINT('Ctrl Pts',(-45.5351347218457,-65.2299243616068,1.2));
#950=CARTESIAN_POINT('',(-49.7664096328357,-69.4331275084509,1.2));
#951=CARTESIAN_POINT('Origin',(-45.0000006705523,-70.0000010430813,1.2));
#952=CARTESIAN_POINT('',(-49.7700773520267,-70.5351350943747,1.2));
#953=CARTESIAN_POINT('Ctrl Pts',(-49.7664096328367,-69.4331275084501,1.2));
#954=CARTESIAN_POINT('Ctrl Pts',(-49.7602957663192,-69.437950836804,1.19999999999999));
#955=CARTESIAN_POINT('Ctrl Pts',(-49.7542557108587,-69.4428814497764,1.20006616071442));
#956=CARTESIAN_POINT('Ctrl Pts',(-49.6799037342687,-69.5056802124989,1.20166598336661));
#957=CARTESIAN_POINT('Ctrl Pts',(-49.6238700020914,-69.5754643073921,1.2112715602787));
#958=CARTESIAN_POINT('Ctrl Pts',(-49.5511836431396,-69.7116129792007,1.22855393494771));
#959=CARTESIAN_POINT('Ctrl Pts',(-49.5284811033571,-69.7742080563764,1.23598097405537));
#960=CARTESIAN_POINT('Ctrl Pts',(-49.5091583472525,-69.8662511593119,1.24262742419174));
#961=CARTESIAN_POINT('Ctrl Pts',(-49.5050860275754,-69.8938013842409,1.24411206499091));
#962=CARTESIAN_POINT('Ctrl Pts',(-49.5010230153557,-69.940034038144,1.24562462793652));
#963=CARTESIAN_POINT('Ctrl Pts',(-49.5001420416814,-69.9586057060178,1.24596843094431));
#964=CARTESIAN_POINT('Ctrl Pts',(-49.4998520667025,-69.9948866427929,1.24611766002893));
#965=CARTESIAN_POINT('Ctrl Pts',(-49.5003883674673,-70.0125633168374,1.24594319875007));
#966=CARTESIAN_POINT('Ctrl Pts',(-49.5031833439331,-70.0537328885057,1.24498358415727));
#967=CARTESIAN_POINT('Ctrl Pts',(-49.5059728384693,-70.077098255449,1.24400723246802));
#968=CARTESIAN_POINT('Ctrl Pts',(-49.5182114217003,-70.1490029003057,1.23983175030023));
#969=CARTESIAN_POINT('Ctrl Pts',(-49.5316104988372,-70.1964018555941,1.23534397175085));
#970=CARTESIAN_POINT('Ctrl Pts',(-49.5841043476495,-70.3282030570499,1.22040007092707));
#971=CARTESIAN_POINT('Ctrl Pts',(-49.6352842930746,-70.4065502577275,1.20835613584215));
#972=CARTESIAN_POINT('Ctrl Pts',(-49.7219767020069,-70.4950579840669,1.20106713478198));
#973=CARTESIAN_POINT('Ctrl Pts',(-49.7454312751972,-70.5159561784306,1.2));
#974=CARTESIAN_POINT('Ctrl Pts',(-49.7700773520267,-70.5351350943747,1.2));
#975=CARTESIAN_POINT('',(-45.5668742051826,-74.7664100053647,1.2));
#976=CARTESIAN_POINT('Origin',(-45.0000006705523,-70.0000010430813,1.2));
#977=CARTESIAN_POINT('',(-44.4648666192588,-74.7700777245557,1.2));
#978=CARTESIAN_POINT('Ctrl Pts',(-45.5668742051834,-74.7664100053657,1.2));
#979=CARTESIAN_POINT('Ctrl Pts',(-45.5620508768295,-74.7602961388483,1.19999999999999));
#980=CARTESIAN_POINT('Ctrl Pts',(-45.5571202638571,-74.7542560833877,1.20006616071442));
#981=CARTESIAN_POINT('Ctrl Pts',(-45.4943215011347,-74.6799041067978,1.20166598336661));
#982=CARTESIAN_POINT('Ctrl Pts',(-45.4245374062415,-74.6238703746205,1.21127156027869));
#983=CARTESIAN_POINT('Ctrl Pts',(-45.2883887344329,-74.5511840156687,1.22855393494771));
#984=CARTESIAN_POINT('Ctrl Pts',(-45.2257936572573,-74.5284814758861,1.23598097405537));
#985=CARTESIAN_POINT('Ctrl Pts',(-45.1337505543215,-74.5091587197816,1.24262742419175));
#986=CARTESIAN_POINT('Ctrl Pts',(-45.1062003293926,-74.5050864001044,1.24411206499091));
#987=CARTESIAN_POINT('Ctrl Pts',(-45.0599676754898,-74.5010233878847,1.24562462793651));
#988=CARTESIAN_POINT('Ctrl Pts',(-45.0413960076159,-74.5001424142104,1.24596843094431));
#989=CARTESIAN_POINT('Ctrl Pts',(-45.0051150708406,-74.4998524392315,1.24611766002893));
#990=CARTESIAN_POINT('Ctrl Pts',(-44.9874383967961,-74.5003887399963,1.24594319875007));
#991=CARTESIAN_POINT('Ctrl Pts',(-44.9462688251279,-74.5031837164621,1.24498358415727));
#992=CARTESIAN_POINT('Ctrl Pts',(-44.9229034581846,-74.5059732109984,1.24400723246802));
#993=CARTESIAN_POINT('Ctrl Pts',(-44.8509988133279,-74.5182117942293,1.23983175030023));
#994=CARTESIAN_POINT('Ctrl Pts',(-44.8035998580394,-74.5316108713662,1.23534397175085));
#995=CARTESIAN_POINT('Ctrl Pts',(-44.6717986565838,-74.5841047201784,1.22040007092709));
#996=CARTESIAN_POINT('Ctrl Pts',(-44.5934514559062,-74.6352846656035,1.20835613584216));
#997=CARTESIAN_POINT('Ctrl Pts',(-44.5049437295667,-74.7219770745359,1.20106713478198));
#998=CARTESIAN_POINT('Ctrl Pts',(-44.484045535203,-74.7454316477262,1.2));
#999=CARTESIAN_POINT('Ctrl Pts',(-44.4648666192588,-74.7700777245557,1.2));
#1000=CARTESIAN_POINT('',(-40.2335917082688,-70.5668745777117,1.2));
#1001=CARTESIAN_POINT('Origin',(-45.0000006705523,-70.0000010430813,1.2));
#1002=CARTESIAN_POINT('',(-40.5000294705681,-70.0173076700347,1.24605938969966));
#1003=CARTESIAN_POINT('Ctrl Pts',(-40.2335917082688,-70.5668745777117,1.2));
#1004=CARTESIAN_POINT('Ctrl Pts',(-40.2805413264777,-70.5298352632176,1.2));
#1005=CARTESIAN_POINT('Ctrl Pts',(-40.3223802293623,-70.4870732992184,1.20391870504822));
#1006=CARTESIAN_POINT('Ctrl Pts',(-40.4138087903551,-70.3662466035811,1.21813082899616));
#1007=CARTESIAN_POINT('Ctrl Pts',(-40.4542023358285,-70.2826963597832,1.23039300985741));
#1008=CARTESIAN_POINT('Ctrl Pts',(-40.4857764051833,-70.1617765975997,1.24082298032583));
#1009=CARTESIAN_POINT('Ctrl Pts',(-40.4918596196962,-70.1289895881812,1.24300271284454));
#1010=CARTESIAN_POINT('Ctrl Pts',(-40.4978402146695,-70.0761314858087,1.24519296875331));
#1011=CARTESIAN_POINT('Ctrl Pts',(-40.499223937441,-70.0562816102468,1.24571993518627));
#1012=CARTESIAN_POINT('Ctrl Pts',(-40.4999422009214,-70.0300851890746,1.24601220430671));
#1013=CARTESIAN_POINT('Ctrl Pts',(-40.5000294705677,-70.0236896221078,1.24605167095876));
#1014=CARTESIAN_POINT('Ctrl Pts',(-40.5000294705681,-70.0173076700587,1.24605938969966));
#1015=CARTESIAN_POINT('Ctrl Pts',(-40.5000294705681,-70.0173076700587,1.24605938969966));
#1016=CARTESIAN_POINT('Ctrl Pts',(-40.5000294705685,-70.0115273670677,1.24606638076772));
#1017=CARTESIAN_POINT('Ctrl Pts',(-40.499957878341,-70.0057582329479,1.24604733043457));
#1018=CARTESIAN_POINT('Ctrl Pts',(-40.4998154954905,-70.0000010434379,1.2460025834693));
#1019=CARTESIAN_POINT('Origin',(-45.0000006705523,-70.0000010430813,2.2));
#1020=CARTESIAN_POINT('Origin',(-45.0000006705523,-70.0000010430813,0.));
#1021=CARTESIAN_POINT('',(-48.8000006705523,-70.0000010430813,6.2));
#1022=CARTESIAN_POINT('Origin',(-45.0000006705523,-70.0000010430813,6.2));
#1023=CARTESIAN_POINT('',(-48.8000006705523,-70.0000010430813,0.));
#1024=CARTESIAN_POINT('Origin',(-45.0000006705523,-70.0000010430813,0.));
#1025=CARTESIAN_POINT('',(-47.6000006705522,-70.0000010430813,6.2));
#1026=CARTESIAN_POINT('Origin',(-45.0000006705523,-70.0000010430813,6.2));
#1027=CARTESIAN_POINT('',(-47.6000006705522,-70.0000010430813,0.));
#1028=CARTESIAN_POINT('',(-47.6000006705522,-70.0000010430813,0.));
#1029=CARTESIAN_POINT('Origin',(-45.0000006705523,-70.0000010430813,0.));
#1030=CARTESIAN_POINT('Origin',(-45.0000006705523,-70.0000010430813,6.2));
#1031=CARTESIAN_POINT('Origin',(-44.9826940436228,-64.8000298430972,0.));
#1032=CARTESIAN_POINT('',(-45.6826940436228,-64.8000298430972,1.2));
#1033=CARTESIAN_POINT('Origin',(-44.9826940436228,-64.8000298430972,1.2));
#1034=CARTESIAN_POINT('Origin',(-44.9826940436228,-64.8000298430972,1.2));
#1035=CARTESIAN_POINT('',(-45.6826940436228,-64.8000298430972,0.));
#1036=CARTESIAN_POINT('',(-45.6826940436228,-64.8000298430972,0.));
#1037=CARTESIAN_POINT('Origin',(-44.9826940436228,-64.8000298430972,0.));
#1038=CARTESIAN_POINT('Origin',(-50.1999718705364,-69.9826944161518,0.));
#1039=CARTESIAN_POINT('',(-50.8999718705364,-69.9826944161518,1.2));
#1040=CARTESIAN_POINT('Origin',(-50.1999718705364,-69.9826944161518,1.2));
#1041=CARTESIAN_POINT('Origin',(-50.1999718705364,-69.9826944161518,1.2));
#1042=CARTESIAN_POINT('',(-50.8999718705364,-69.9826944161518,0.));
#1043=CARTESIAN_POINT('',(-50.8999718705364,-69.9826944161518,0.));
#1044=CARTESIAN_POINT('Origin',(-50.1999718705364,-69.9826944161518,0.));
#1045=CARTESIAN_POINT('Origin',(-45.0173072974817,-75.1999722430654,0.));
#1046=CARTESIAN_POINT('',(-45.7173072974817,-75.1999722430654,1.2));
#1047=CARTESIAN_POINT('Origin',(-45.0173072974817,-75.1999722430654,1.2));
#1048=CARTESIAN_POINT('Origin',(-45.0173072974817,-75.1999722430654,1.2));
#1049=CARTESIAN_POINT('',(-45.7173072974817,-75.1999722430654,0.));
#1050=CARTESIAN_POINT('',(-45.7173072974817,-75.1999722430654,0.));
#1051=CARTESIAN_POINT('Origin',(-45.0173072974817,-75.1999722430654,0.));
#1052=CARTESIAN_POINT('Origin',(-39.8000294705681,-70.0173076700107,0.));
#1053=CARTESIAN_POINT('',(-40.5000294705681,-70.0173076700107,0.));
#1054=CARTESIAN_POINT('',(-40.5000294705681,-70.0173076700107,0.));
#1055=CARTESIAN_POINT('Origin',(-39.8000294705681,-70.0173076700107,0.));
#1056=CARTESIAN_POINT('Origin',(-39.8000294705681,-70.0173076700107,1.2));
#1057=CARTESIAN_POINT('Origin',(-45.0000006705523,-70.0000010430813,0.));
#1058=CARTESIAN_POINT('',(-52.0000006705523,-70.0000010430813,1.2));
#1059=CARTESIAN_POINT('Origin',(-45.0000006705523,-70.0000010430813,1.2));
#1060=CARTESIAN_POINT('',(-52.0000006705523,-70.0000010430813,0.));
#1061=CARTESIAN_POINT('',(-52.0000006705523,-70.0000010430813,0.));
#1062=CARTESIAN_POINT('Origin',(-45.0000006705523,-70.0000010430813,0.));
#1063=CARTESIAN_POINT('Origin',(-45.0000006705523,-70.0000010430813,1.2));
#1064=CARTESIAN_POINT('Origin',(-45.0000006705523,-70.0000010430813,0.));
#1065=CARTESIAN_POINT('',(0.,0.,0.));
#1066=CARTESIAN_POINT('Origin',(64.4926021722143,26.1767306566207,0.));
#1067=CARTESIAN_POINT('',(64.4926021722143,26.1767306566207,0.));
#1068=CARTESIAN_POINT('',(64.4926021722143,28.2767306566207,0.));
#1069=CARTESIAN_POINT('',(64.4926021722143,26.1767306566207,0.));
#1070=CARTESIAN_POINT('',(64.4926021722143,28.2767306566207,5.));
#1071=CARTESIAN_POINT('',(64.4926021722143,28.2767306566207,0.));
#1072=CARTESIAN_POINT('',(64.4926021722143,26.1767306566207,5.));
#1073=CARTESIAN_POINT('',(64.4926021722143,26.1767306566207,5.));
#1074=CARTESIAN_POINT('',(64.4926021722143,26.1767306566207,0.));
#1075=CARTESIAN_POINT('Origin',(62.9926021722143,25.1767306566207,0.));
#1076=CARTESIAN_POINT('',(62.9926021722143,25.1767306566207,0.));
#1077=CARTESIAN_POINT('',(62.9926021722143,25.1767306566207,0.));
#1078=CARTESIAN_POINT('',(62.9926021722143,25.1767306566207,5.));
#1079=CARTESIAN_POINT('',(62.9926021722143,25.1767306566207,5.));
#1080=CARTESIAN_POINT('',(62.9926021722143,25.1767306566207,0.));
#1081=CARTESIAN_POINT('Origin',(60.9926021722143,26.1767306566207,0.));
#1082=CARTESIAN_POINT('',(60.9926021722143,26.1767306566207,0.));
#1083=CARTESIAN_POINT('',(60.9926021722143,26.1767306566207,0.));
#1084=CARTESIAN_POINT('',(60.9926021722143,26.1767306566207,5.));
#1085=CARTESIAN_POINT('',(60.9926021722143,26.1767306566207,5.));
#1086=CARTESIAN_POINT('',(60.9926021722143,26.1767306566207,0.));
#1087=CARTESIAN_POINT('Origin',(54.9926021722144,26.1767306566207,0.));
#1088=CARTESIAN_POINT('',(54.9926021722144,26.1767306566207,0.));
#1089=CARTESIAN_POINT('',(54.9926021722144,26.1767306566207,0.));
#1090=CARTESIAN_POINT('',(54.9926021722144,26.1767306566207,5.));
#1091=CARTESIAN_POINT('',(54.9926021722144,26.1767306566207,5.));
#1092=CARTESIAN_POINT('',(54.9926021722144,26.1767306566207,0.));
#1093=CARTESIAN_POINT('Origin',(52.9926021722143,25.1767306566207,0.));
#1094=CARTESIAN_POINT('',(52.9926021722143,25.1767306566207,0.));
#1095=CARTESIAN_POINT('',(52.9926021722143,25.1767306566207,0.));
#1096=CARTESIAN_POINT('',(52.9926021722143,25.1767306566207,5.));
#1097=CARTESIAN_POINT('',(52.9926021722143,25.1767306566207,5.));
#1098=CARTESIAN_POINT('',(52.9926021722143,25.1767306566207,0.));
#1099=CARTESIAN_POINT('Origin',(51.4926021722143,26.1767306566207,0.));
#1100=CARTESIAN_POINT('',(51.4926021722143,26.1767306566207,0.));
#1101=CARTESIAN_POINT('',(51.4926021722143,26.1767306566207,0.));
#1102=CARTESIAN_POINT('',(51.4926021722143,26.1767306566207,5.));
#1103=CARTESIAN_POINT('',(51.4926021722143,26.1767306566207,5.));
#1104=CARTESIAN_POINT('',(51.4926021722143,26.1767306566207,0.));
#1105=CARTESIAN_POINT('Origin',(51.4926021722143,28.2767306566207,0.));
#1106=CARTESIAN_POINT('',(51.4926021722143,28.2767306566207,0.));
#1107=CARTESIAN_POINT('',(51.4926021722143,29.7767306566207,0.));
#1108=CARTESIAN_POINT('',(51.4926021722143,28.2767306566207,5.));
#1109=CARTESIAN_POINT('',(51.4926021722143,29.7767306566207,5.));
#1110=CARTESIAN_POINT('',(51.4926021722143,28.2767306566207,0.));
#1111=CARTESIAN_POINT('Origin',(52.9926021722143,28.2767306566207,0.));
#1112=CARTESIAN_POINT('',(52.9926021722143,29.7767306566207,0.));
#1113=CARTESIAN_POINT('Origin',(52.9926021722143,28.2767306566207,0.));
#1114=CARTESIAN_POINT('',(52.9926021722143,29.7767306566207,5.));
#1115=CARTESIAN_POINT('Origin',(52.9926021722143,28.2767306566207,5.));
#1116=CARTESIAN_POINT('',(52.9926021722143,29.7767306566207,0.));
#1117=CARTESIAN_POINT('Origin',(62.9926021722143,29.7767306566207,0.));
#1118=CARTESIAN_POINT('',(62.9926021722143,29.7767306566207,0.));
#1119=CARTESIAN_POINT('',(51.4926021722143,29.7767306566207,0.));
#1120=CARTESIAN_POINT('',(62.9926021722143,29.7767306566207,5.));
#1121=CARTESIAN_POINT('',(51.4926021722143,29.7767306566207,5.));
#1122=CARTESIAN_POINT('',(62.9926021722143,29.7767306566207,0.));
#1123=CARTESIAN_POINT('Origin',(62.9926021722143,28.2767306566207,0.));
#1124=CARTESIAN_POINT('Origin',(62.9926021722143,28.2767306566207,0.));
#1125=CARTESIAN_POINT('Origin',(62.9926021722143,28.2767306566207,5.));
#1126=CARTESIAN_POINT('Origin',(57.9926021722143,27.4767306566207,5.));
#1127=CARTESIAN_POINT('Origin',(57.9926021722143,27.4767306566207,0.));
#1128=CARTESIAN_POINT('',(0.,0.,0.));
#1129=CARTESIAN_POINT('',(0.,0.,0.));
#1130=CARTESIAN_POINT('',(0.,0.,0.));
#1131=UNCERTAINTY_MEASURE_WITH_UNIT(LENGTH_MEASURE(0.01),#1141,
'DISTANCE_ACCURACY_VALUE',
'Maximum model space distance between geometric entities at asserted c
onnectivities');
#1132=UNCERTAINTY_MEASURE_WITH_UNIT(LENGTH_MEASURE(0.01),#1141,
'DISTANCE_ACCURACY_VALUE',
'Maximum model space distance between geometric entities at asserted c
onnectivities');
#1133=UNCERTAINTY_MEASURE_WITH_UNIT(LENGTH_MEASURE(0.01),#1141,
'DISTANCE_ACCURACY_VALUE',
'Maximum model space distance between geometric entities at asserted c
onnectivities');
#1134=UNCERTAINTY_MEASURE_WITH_UNIT(LENGTH_MEASURE(0.01),#1141,
'DISTANCE_ACCURACY_VALUE',
'Maximum model space distance between geometric entities at asserted c
onnectivities');
#1135=UNCERTAINTY_MEASURE_WITH_UNIT(LENGTH_MEASURE(0.01),#1141,
'DISTANCE_ACCURACY_VALUE',
'Maximum model space distance between geometric entities at asserted c
onnectivities');
#1136=(
GEOMETRIC_REPRESENTATION_CONTEXT(3)
GLOBAL_UNCERTAINTY_ASSIGNED_CONTEXT((#1131))
GLOBAL_UNIT_ASSIGNED_CONTEXT((#1141,#1143,#1144))
REPRESENTATION_CONTEXT('','3D')
);
#1137=(
GEOMETRIC_REPRESENTATION_CONTEXT(3)
GLOBAL_UNCERTAINTY_ASSIGNED_CONTEXT((#1132))
GLOBAL_UNIT_ASSIGNED_CONTEXT((#1141,#1143,#1144))
REPRESENTATION_CONTEXT('','3D')
);
#1138=(
GEOMETRIC_REPRESENTATION_CONTEXT(3)
GLOBAL_UNCERTAINTY_ASSIGNED_CONTEXT((#1133))
GLOBAL_UNIT_ASSIGNED_CONTEXT((#1141,#1143,#1144))
REPRESENTATION_CONTEXT('','3D')
);
#1139=(
GEOMETRIC_REPRESENTATION_CONTEXT(3)
GLOBAL_UNCERTAINTY_ASSIGNED_CONTEXT((#1134))
GLOBAL_UNIT_ASSIGNED_CONTEXT((#1141,#1143,#1144))
REPRESENTATION_CONTEXT('','3D')
);
#1140=(
GEOMETRIC_REPRESENTATION_CONTEXT(3)
GLOBAL_UNCERTAINTY_ASSIGNED_CONTEXT((#1135))
GLOBAL_UNIT_ASSIGNED_CONTEXT((#1141,#1143,#1144))
REPRESENTATION_CONTEXT('','3D')
);
#1141=(
LENGTH_UNIT()
NAMED_UNIT(*)
SI_UNIT(.MILLI.,.METRE.)
);
#1142=(
LENGTH_UNIT()
NAMED_UNIT(*)
SI_UNIT($,.METRE.)
);
#1143=(
NAMED_UNIT(*)
PLANE_ANGLE_UNIT()
SI_UNIT($,.RADIAN.)
);
#1144=(
NAMED_UNIT(*)
SI_UNIT($,.STERADIAN.)
SOLID_ANGLE_UNIT()
);
#1145=SHAPE_DEFINITION_REPRESENTATION(#1149,#1156);
#1146=SHAPE_DEFINITION_REPRESENTATION(#1150,#1157);
#1147=SHAPE_DEFINITION_REPRESENTATION(#1151,#1158);
#1148=SHAPE_DEFINITION_REPRESENTATION(#1152,#1159);
#1149=PRODUCT_DEFINITION_SHAPE('',$,#1161);
#1150=PRODUCT_DEFINITION_SHAPE('',$,#1162);
#1151=PRODUCT_DEFINITION_SHAPE('',$,#1163);
#1152=PRODUCT_DEFINITION_SHAPE('',$,#1164);
#1153=PRODUCT_DEFINITION_SHAPE($,$,#20);
#1154=PRODUCT_DEFINITION_SHAPE($,$,#21);
#1155=PRODUCT_DEFINITION_SHAPE($,$,#22);
#1156=SHAPE_REPRESENTATION('',(#619,#689,#690,#691),#1136);
#1157=SHAPE_REPRESENTATION('',(#620),#1137);
#1158=SHAPE_REPRESENTATION('',(#637),#1138);
#1159=SHAPE_REPRESENTATION('',(#672),#1139);
#1160=PRODUCT_DEFINITION_CONTEXT('part definition',#1174,'design');
#1161=PRODUCT_DEFINITION('Parts','Parts v2',#1165,#1160);
#1162=PRODUCT_DEFINITION('Neck','Neck',#1166,#1160);
#1163=PRODUCT_DEFINITION('PipeHolder(Small)','PipeHolder(Small)',#1167,
#1160);
#1164=PRODUCT_DEFINITION('Eye LED Holder','Eye LED Holder',#1168,#1160);
#1165=PRODUCT_DEFINITION_FORMATION('',$,#1176);
#1166=PRODUCT_DEFINITION_FORMATION('',$,#1177);
#1167=PRODUCT_DEFINITION_FORMATION('',$,#1178);
#1168=PRODUCT_DEFINITION_FORMATION('',$,#1179);
#1169=PRODUCT_RELATED_PRODUCT_CATEGORY('Parts v2','Parts v2',(#1176));
#1170=PRODUCT_RELATED_PRODUCT_CATEGORY('Neck','Neck',(#1177));
#1171=PRODUCT_RELATED_PRODUCT_CATEGORY('PipeHolder(Small)',
'PipeHolder(Small)',(#1178));
#1172=PRODUCT_RELATED_PRODUCT_CATEGORY('Eye LED Holder',
'Eye LED Holder',(#1179));
#1173=APPLICATION_PROTOCOL_DEFINITION('international standard',
'automotive_design',2009,#1174);
#1174=APPLICATION_CONTEXT(
'Core Data for Automotive Mechanical Design Process');
#1175=PRODUCT_CONTEXT('part definition',#1174,'mechanical');
#1176=PRODUCT('Parts','Parts v2',$,(#1175));
#1177=PRODUCT('Neck','Neck',$,(#1175));
#1178=PRODUCT('PipeHolder(Small)','PipeHolder(Small)',$,(#1175));
#1179=PRODUCT('Eye LED Holder','Eye LED Holder',$,(#1175));
#1180=PRESENTATION_STYLE_ASSIGNMENT((#1181));
#1181=SURFACE_STYLE_USAGE(.BOTH.,#1182);
#1182=SURFACE_SIDE_STYLE('',(#1183));
#1183=SURFACE_STYLE_FILL_AREA(#1184);
#1184=FILL_AREA_STYLE('Steel - Satin',(#1185));
#1185=FILL_AREA_STYLE_COLOUR('Steel - Satin',#1186);
#1186=COLOUR_RGB('Steel - Satin',0.627450980392157,0.627450980392157,0.627450980392157);
ENDSEC;
END-ISO-10303-21;
